<?xml version="1.0" encoding="utf-8" standalone="no"?>
<!DOCTYPE svg PUBLIC "-//W3C//DTD SVG 1.1//EN"
  "http://www.w3.org/Graphics/SVG/1.1/DTD/svg11.dtd">
<svg xmlns:xlink="http://www.w3.org/1999/xlink" width="1152pt" height="648pt" viewBox="0 0 1152 648" xmlns="http://www.w3.org/2000/svg" version="1.1">
 <title>Average recorded arrests per calendar day by month</title>
 <metadata>
  <rdf:RDF xmlns:dc="http://purl.org/dc/elements/1.1/" xmlns:cc="http://creativecommons.org/ns#" xmlns:rdf="http://www.w3.org/1999/02/22-rdf-syntax-ns#">
   <cc:Work>
    <dc:type rdf:resource="http://purl.org/dc/dcmitype/StillImage"/>
    <dc:title>Average recorded arrests per calendar day by month</dc:title>
    <dc:format>image/svg+xml</dc:format>
    <dc:creator>
     <cc:Agent>
      <dc:title>CA6002 Part 1 temporal analysis</dc:title>
     </cc:Agent>
    </dc:creator>
   </cc:Work>
  </rdf:RDF>
 </metadata>
 <defs>
  <style type="text/css">*{stroke-linejoin: round; stroke-linecap: butt}</style>
 </defs>
 <g id="figure_1">
  <g id="patch_1">
   <path d="M 0 648 
L 1152 648 
L 1152 0 
L 0 0 
z
" style="fill: #ffffff"/>
  </g>
  <g id="axes_1">
   <g id="patch_2">
    <path d="M 109.44 531.36 
L 1111.68 531.36 
L 1111.68 123.12 
L 109.44 123.12 
z
" style="fill: #ffffff"/>
   </g>
   <g id="matplotlib.axis_1">
    <g id="xtick_1">
     <g id="line2d_1">
      <defs>
       <path id="me5c1042c1a" d="M 0 0 
L 0 3.5 
" style="stroke: #68737d; stroke-width: 0.8"/>
      </defs>
      <g>
       <use xlink:href="#me5c1042c1a" x="208.118625" y="531.36" style="fill: #68737d; stroke: #68737d; stroke-width: 0.8"/>
      </g>
     </g>
     <g id="text_1">
      <!-- Jan 2026 -->
      <g style="fill: #68737d" transform="translate(181.692375 547.477188) scale(0.12 -0.12)">
       <defs>
        <path id="DejaVuSans-2d" d="M 628 4666 
L 1259 4666 
L 1259 325 
Q 1259 -519 939 -900 
Q 619 -1281 -91 -1281 
L -331 -1281 
L -331 -750 
L -134 -750 
Q 284 -750 456 -515 
Q 628 -281 628 325 
L 628 4666 
z
" transform="scale(0.015625)"/>
        <path id="DejaVuSans-44" d="M 2194 1759 
Q 1497 1759 1228 1600 
Q 959 1441 959 1056 
Q 959 750 1161 570 
Q 1363 391 1709 391 
Q 2188 391 2477 730 
Q 2766 1069 2766 1631 
L 2766 1759 
L 2194 1759 
z
M 3341 1997 
L 3341 0 
L 2766 0 
L 2766 531 
Q 2569 213 2275 61 
Q 1981 -91 1556 -91 
Q 1019 -91 701 211 
Q 384 513 384 1019 
Q 384 1609 779 1909 
Q 1175 2209 1959 2209 
L 2766 2209 
L 2766 2266 
Q 2766 2663 2505 2880 
Q 2244 3097 1772 3097 
Q 1472 3097 1187 3025 
Q 903 2953 641 2809 
L 641 3341 
Q 956 3463 1253 3523 
Q 1550 3584 1831 3584 
Q 2591 3584 2966 3190 
Q 3341 2797 3341 1997 
z
" transform="scale(0.015625)"/>
        <path id="DejaVuSans-51" d="M 3513 2113 
L 3513 0 
L 2938 0 
L 2938 2094 
Q 2938 2591 2744 2837 
Q 2550 3084 2163 3084 
Q 1697 3084 1428 2787 
Q 1159 2491 1159 1978 
L 1159 0 
L 581 0 
L 581 3500 
L 1159 3500 
L 1159 2956 
Q 1366 3272 1645 3428 
Q 1925 3584 2291 3584 
Q 2894 3584 3203 3211 
Q 3513 2838 3513 2113 
z
" transform="scale(0.015625)"/>
        <path id="DejaVuSans-3" transform="scale(0.015625)"/>
        <path id="DejaVuSans-15" d="M 1228 531 
L 3431 531 
L 3431 0 
L 469 0 
L 469 531 
Q 828 903 1448 1529 
Q 2069 2156 2228 2338 
Q 2531 2678 2651 2914 
Q 2772 3150 2772 3378 
Q 2772 3750 2511 3984 
Q 2250 4219 1831 4219 
Q 1534 4219 1204 4116 
Q 875 4013 500 3803 
L 500 4441 
Q 881 4594 1212 4672 
Q 1544 4750 1819 4750 
Q 2544 4750 2975 4387 
Q 3406 4025 3406 3419 
Q 3406 3131 3298 2873 
Q 3191 2616 2906 2266 
Q 2828 2175 2409 1742 
Q 1991 1309 1228 531 
z
" transform="scale(0.015625)"/>
        <path id="DejaVuSans-13" d="M 2034 4250 
Q 1547 4250 1301 3770 
Q 1056 3291 1056 2328 
Q 1056 1369 1301 889 
Q 1547 409 2034 409 
Q 2525 409 2770 889 
Q 3016 1369 3016 2328 
Q 3016 3291 2770 3770 
Q 2525 4250 2034 4250 
z
M 2034 4750 
Q 2819 4750 3233 4129 
Q 3647 3509 3647 2328 
Q 3647 1150 3233 529 
Q 2819 -91 2034 -91 
Q 1250 -91 836 529 
Q 422 1150 422 2328 
Q 422 3509 836 4129 
Q 1250 4750 2034 4750 
z
" transform="scale(0.015625)"/>
        <path id="DejaVuSans-19" d="M 2113 2584 
Q 1688 2584 1439 2293 
Q 1191 2003 1191 1497 
Q 1191 994 1439 701 
Q 1688 409 2113 409 
Q 2538 409 2786 701 
Q 3034 994 3034 1497 
Q 3034 2003 2786 2293 
Q 2538 2584 2113 2584 
z
M 3366 4563 
L 3366 3988 
Q 3128 4100 2886 4159 
Q 2644 4219 2406 4219 
Q 1781 4219 1451 3797 
Q 1122 3375 1075 2522 
Q 1259 2794 1537 2939 
Q 1816 3084 2150 3084 
Q 2853 3084 3261 2657 
Q 3669 2231 3669 1497 
Q 3669 778 3244 343 
Q 2819 -91 2113 -91 
Q 1303 -91 875 529 
Q 447 1150 447 2328 
Q 447 3434 972 4092 
Q 1497 4750 2381 4750 
Q 2619 4750 2861 4703 
Q 3103 4656 3366 4563 
z
" transform="scale(0.015625)"/>
       </defs>
       <use xlink:href="#DejaVuSans-2d"/>
       <use xlink:href="#DejaVuSans-44" transform="translate(29.5 0)"/>
       <use xlink:href="#DejaVuSans-51" transform="translate(90.78125 0)"/>
       <use xlink:href="#DejaVuSans-3" transform="translate(154.15625 0)"/>
       <use xlink:href="#DejaVuSans-15" transform="translate(185.9375 0)"/>
       <use xlink:href="#DejaVuSans-13" transform="translate(249.5625 0)"/>
       <use xlink:href="#DejaVuSans-15" transform="translate(313.1875 0)"/>
       <use xlink:href="#DejaVuSans-19" transform="translate(376.8125 0)"/>
      </g>
     </g>
    </g>
    <g id="xtick_2">
     <g id="line2d_2">
      <g>
       <use xlink:href="#me5c1042c1a" x="369.095175" y="531.36" style="fill: #68737d; stroke: #68737d; stroke-width: 0.8"/>
      </g>
     </g>
     <g id="text_2">
      <!-- Feb 2026 -->
      <g style="fill: #68737d" transform="translate(341.29455 547.478125) scale(0.12 -0.12)">
       <defs>
        <path id="DejaVuSans-29" d="M 628 4666 
L 3309 4666 
L 3309 4134 
L 1259 4134 
L 1259 2759 
L 3109 2759 
L 3109 2228 
L 1259 2228 
L 1259 0 
L 628 0 
L 628 4666 
z
" transform="scale(0.015625)"/>
        <path id="DejaVuSans-48" d="M 3597 1894 
L 3597 1613 
L 953 1613 
Q 991 1019 1311 708 
Q 1631 397 2203 397 
Q 2534 397 2845 478 
Q 3156 559 3463 722 
L 3463 178 
Q 3153 47 2828 -22 
Q 2503 -91 2169 -91 
Q 1331 -91 842 396 
Q 353 884 353 1716 
Q 353 2575 817 3079 
Q 1281 3584 2069 3584 
Q 2775 3584 3186 3129 
Q 3597 2675 3597 1894 
z
M 3022 2063 
Q 3016 2534 2758 2815 
Q 2500 3097 2075 3097 
Q 1594 3097 1305 2825 
Q 1016 2553 972 2059 
L 3022 2063 
z
" transform="scale(0.015625)"/>
        <path id="DejaVuSans-45" d="M 3116 1747 
Q 3116 2381 2855 2742 
Q 2594 3103 2138 3103 
Q 1681 3103 1420 2742 
Q 1159 2381 1159 1747 
Q 1159 1113 1420 752 
Q 1681 391 2138 391 
Q 2594 391 2855 752 
Q 3116 1113 3116 1747 
z
M 1159 2969 
Q 1341 3281 1617 3432 
Q 1894 3584 2278 3584 
Q 2916 3584 3314 3078 
Q 3713 2572 3713 1747 
Q 3713 922 3314 415 
Q 2916 -91 2278 -91 
Q 1894 -91 1617 61 
Q 1341 213 1159 525 
L 1159 0 
L 581 0 
L 581 4863 
L 1159 4863 
L 1159 2969 
z
" transform="scale(0.015625)"/>
       </defs>
       <use xlink:href="#DejaVuSans-29"/>
       <use xlink:href="#DejaVuSans-48" transform="translate(52.046875 0)"/>
       <use xlink:href="#DejaVuSans-45" transform="translate(113.578125 0)"/>
       <use xlink:href="#DejaVuSans-3" transform="translate(177.0625 0)"/>
       <use xlink:href="#DejaVuSans-15" transform="translate(208.84375 0)"/>
       <use xlink:href="#DejaVuSans-13" transform="translate(272.46875 0)"/>
       <use xlink:href="#DejaVuSans-15" transform="translate(336.09375 0)"/>
       <use xlink:href="#DejaVuSans-19" transform="translate(399.71875 0)"/>
      </g>
     </g>
    </g>
    <g id="xtick_3">
     <g id="line2d_3">
      <g>
       <use xlink:href="#me5c1042c1a" x="530.071725" y="531.36" style="fill: #68737d; stroke: #68737d; stroke-width: 0.8"/>
      </g>
     </g>
     <g id="text_3">
      <!-- Mar 2026 -->
      <g style="fill: #68737d" transform="translate(501.574538 547.477188) scale(0.12 -0.12)">
       <defs>
        <path id="DejaVuSans-30" d="M 628 4666 
L 1569 4666 
L 2759 1491 
L 3956 4666 
L 4897 4666 
L 4897 0 
L 4281 0 
L 4281 4097 
L 3078 897 
L 2444 897 
L 1241 4097 
L 1241 0 
L 628 0 
L 628 4666 
z
" transform="scale(0.015625)"/>
        <path id="DejaVuSans-55" d="M 2631 2963 
Q 2534 3019 2420 3045 
Q 2306 3072 2169 3072 
Q 1681 3072 1420 2755 
Q 1159 2438 1159 1844 
L 1159 0 
L 581 0 
L 581 3500 
L 1159 3500 
L 1159 2956 
Q 1341 3275 1631 3429 
Q 1922 3584 2338 3584 
Q 2397 3584 2469 3576 
Q 2541 3569 2628 3553 
L 2631 2963 
z
" transform="scale(0.015625)"/>
       </defs>
       <use xlink:href="#DejaVuSans-30"/>
       <use xlink:href="#DejaVuSans-44" transform="translate(86.28125 0)"/>
       <use xlink:href="#DejaVuSans-55" transform="translate(147.5625 0)"/>
       <use xlink:href="#DejaVuSans-3" transform="translate(188.671875 0)"/>
       <use xlink:href="#DejaVuSans-15" transform="translate(220.453125 0)"/>
       <use xlink:href="#DejaVuSans-13" transform="translate(284.078125 0)"/>
       <use xlink:href="#DejaVuSans-15" transform="translate(347.703125 0)"/>
       <use xlink:href="#DejaVuSans-19" transform="translate(411.328125 0)"/>
      </g>
     </g>
    </g>
    <g id="xtick_4">
     <g id="line2d_4">
      <g>
       <use xlink:href="#me5c1042c1a" x="691.048275" y="531.36" style="fill: #68737d; stroke: #68737d; stroke-width: 0.8"/>
      </g>
     </g>
     <g id="text_4">
      <!-- Apr 2026 -->
      <g style="fill: #68737d" transform="translate(663.4914 547.477188) scale(0.12 -0.12)">
       <defs>
        <path id="DejaVuSans-24" d="M 2188 4044 
L 1331 1722 
L 3047 1722 
L 2188 4044 
z
M 1831 4666 
L 2547 4666 
L 4325 0 
L 3669 0 
L 3244 1197 
L 1141 1197 
L 716 0 
L 50 0 
L 1831 4666 
z
" transform="scale(0.015625)"/>
        <path id="DejaVuSans-53" d="M 1159 525 
L 1159 -1331 
L 581 -1331 
L 581 3500 
L 1159 3500 
L 1159 2969 
Q 1341 3281 1617 3432 
Q 1894 3584 2278 3584 
Q 2916 3584 3314 3078 
Q 3713 2572 3713 1747 
Q 3713 922 3314 415 
Q 2916 -91 2278 -91 
Q 1894 -91 1617 61 
Q 1341 213 1159 525 
z
M 3116 1747 
Q 3116 2381 2855 2742 
Q 2594 3103 2138 3103 
Q 1681 3103 1420 2742 
Q 1159 2381 1159 1747 
Q 1159 1113 1420 752 
Q 1681 391 2138 391 
Q 2594 391 2855 752 
Q 3116 1113 3116 1747 
z
" transform="scale(0.015625)"/>
       </defs>
       <use xlink:href="#DejaVuSans-24"/>
       <use xlink:href="#DejaVuSans-53" transform="translate(68.40625 0)"/>
       <use xlink:href="#DejaVuSans-55" transform="translate(131.890625 0)"/>
       <use xlink:href="#DejaVuSans-3" transform="translate(173 0)"/>
       <use xlink:href="#DejaVuSans-15" transform="translate(204.78125 0)"/>
       <use xlink:href="#DejaVuSans-13" transform="translate(268.40625 0)"/>
       <use xlink:href="#DejaVuSans-15" transform="translate(332.03125 0)"/>
       <use xlink:href="#DejaVuSans-19" transform="translate(395.65625 0)"/>
      </g>
     </g>
    </g>
    <g id="xtick_5">
     <g id="line2d_5">
      <g>
       <use xlink:href="#me5c1042c1a" x="852.024825" y="531.36" style="fill: #68737d; stroke: #68737d; stroke-width: 0.8"/>
      </g>
     </g>
     <g id="text_5">
      <!-- May 2026 -->
      <g style="fill: #68737d" transform="translate(822.44295 547.477188) scale(0.12 -0.12)">
       <defs>
        <path id="DejaVuSans-5c" d="M 2059 -325 
Q 1816 -950 1584 -1140 
Q 1353 -1331 966 -1331 
L 506 -1331 
L 506 -850 
L 844 -850 
Q 1081 -850 1212 -737 
Q 1344 -625 1503 -206 
L 1606 56 
L 191 3500 
L 800 3500 
L 1894 763 
L 2988 3500 
L 3597 3500 
L 2059 -325 
z
" transform="scale(0.015625)"/>
       </defs>
       <use xlink:href="#DejaVuSans-30"/>
       <use xlink:href="#DejaVuSans-44" transform="translate(86.28125 0)"/>
       <use xlink:href="#DejaVuSans-5c" transform="translate(147.5625 0)"/>
       <use xlink:href="#DejaVuSans-3" transform="translate(206.75 0)"/>
       <use xlink:href="#DejaVuSans-15" transform="translate(238.53125 0)"/>
       <use xlink:href="#DejaVuSans-13" transform="translate(302.15625 0)"/>
       <use xlink:href="#DejaVuSans-15" transform="translate(365.78125 0)"/>
       <use xlink:href="#DejaVuSans-19" transform="translate(429.40625 0)"/>
      </g>
     </g>
    </g>
    <g id="xtick_6">
     <g id="line2d_6">
      <g>
       <use xlink:href="#me5c1042c1a" x="1013.001375" y="531.36" style="fill: #68737d; stroke: #68737d; stroke-width: 0.8"/>
      </g>
     </g>
     <g id="text_6">
      <!-- Jun 2026 -->
      <g style="fill: #68737d" transform="translate(986.4495 547.477188) scale(0.12 -0.12)">
       <defs>
        <path id="DejaVuSans-58" d="M 544 1381 
L 544 3500 
L 1119 3500 
L 1119 1403 
Q 1119 906 1312 657 
Q 1506 409 1894 409 
Q 2359 409 2629 706 
Q 2900 1003 2900 1516 
L 2900 3500 
L 3475 3500 
L 3475 0 
L 2900 0 
L 2900 538 
Q 2691 219 2414 64 
Q 2138 -91 1772 -91 
Q 1169 -91 856 284 
Q 544 659 544 1381 
z
M 1991 3584 
L 1991 3584 
z
" transform="scale(0.015625)"/>
       </defs>
       <use xlink:href="#DejaVuSans-2d"/>
       <use xlink:href="#DejaVuSans-58" transform="translate(29.5 0)"/>
       <use xlink:href="#DejaVuSans-51" transform="translate(92.875 0)"/>
       <use xlink:href="#DejaVuSans-3" transform="translate(156.25 0)"/>
       <use xlink:href="#DejaVuSans-15" transform="translate(188.03125 0)"/>
       <use xlink:href="#DejaVuSans-13" transform="translate(251.65625 0)"/>
       <use xlink:href="#DejaVuSans-15" transform="translate(315.28125 0)"/>
       <use xlink:href="#DejaVuSans-19" transform="translate(378.90625 0)"/>
      </g>
     </g>
    </g>
   </g>
   <g id="matplotlib.axis_2">
    <g id="ytick_1">
     <g id="line2d_7">
      <path d="M 109.44 531.36 
L 1111.68 531.36 
" clip-path="url(#p66bc9e44ae)" style="fill: none; stroke: #d9e0e5; stroke-opacity: 0.8; stroke-width: 0.8; stroke-linecap: square"/>
     </g>
     <g id="line2d_8">
      <defs>
       <path id="m2b9c31d5ad" d="M 0 0 
L -3.5 0 
" style="stroke: #68737d; stroke-width: 0.8"/>
      </defs>
      <g>
       <use xlink:href="#m2b9c31d5ad" x="109.44" y="531.36" style="fill: #68737d; stroke: #68737d; stroke-width: 0.8"/>
      </g>
     </g>
     <g id="text_7">
      <!-- 0 -->
      <g style="fill: #68737d" transform="translate(94.805 535.918594) scale(0.12 -0.12)">
       <use xlink:href="#DejaVuSans-13"/>
      </g>
     </g>
    </g>
    <g id="ytick_2">
     <g id="line2d_9">
      <path d="M 109.44 453.380295 
L 1111.68 453.380295 
" clip-path="url(#p66bc9e44ae)" style="fill: none; stroke: #d9e0e5; stroke-opacity: 0.8; stroke-width: 0.8; stroke-linecap: square"/>
     </g>
     <g id="line2d_10">
      <g>
       <use xlink:href="#m2b9c31d5ad" x="109.44" y="453.380295" style="fill: #68737d; stroke: #68737d; stroke-width: 0.8"/>
      </g>
     </g>
     <g id="text_8">
      <!-- 200 -->
      <g style="fill: #68737d" transform="translate(79.535 457.938889) scale(0.12 -0.12)">
       <use xlink:href="#DejaVuSans-15"/>
       <use xlink:href="#DejaVuSans-13" transform="translate(63.625 0)"/>
       <use xlink:href="#DejaVuSans-13" transform="translate(127.25 0)"/>
      </g>
     </g>
    </g>
    <g id="ytick_3">
     <g id="line2d_11">
      <path d="M 109.44 375.400591 
L 1111.68 375.400591 
" clip-path="url(#p66bc9e44ae)" style="fill: none; stroke: #d9e0e5; stroke-opacity: 0.8; stroke-width: 0.8; stroke-linecap: square"/>
     </g>
     <g id="line2d_12">
      <g>
       <use xlink:href="#m2b9c31d5ad" x="109.44" y="375.400591" style="fill: #68737d; stroke: #68737d; stroke-width: 0.8"/>
      </g>
     </g>
     <g id="text_9">
      <!-- 400 -->
      <g style="fill: #68737d" transform="translate(79.535 379.959184) scale(0.12 -0.12)">
       <defs>
        <path id="DejaVuSans-17" d="M 2419 4116 
L 825 1625 
L 2419 1625 
L 2419 4116 
z
M 2253 4666 
L 3047 4666 
L 3047 1625 
L 3713 1625 
L 3713 1100 
L 3047 1100 
L 3047 0 
L 2419 0 
L 2419 1100 
L 313 1100 
L 313 1709 
L 2253 4666 
z
" transform="scale(0.015625)"/>
       </defs>
       <use xlink:href="#DejaVuSans-17"/>
       <use xlink:href="#DejaVuSans-13" transform="translate(63.625 0)"/>
       <use xlink:href="#DejaVuSans-13" transform="translate(127.25 0)"/>
      </g>
     </g>
    </g>
    <g id="ytick_4">
     <g id="line2d_13">
      <path d="M 109.44 297.420886 
L 1111.68 297.420886 
" clip-path="url(#p66bc9e44ae)" style="fill: none; stroke: #d9e0e5; stroke-opacity: 0.8; stroke-width: 0.8; stroke-linecap: square"/>
     </g>
     <g id="line2d_14">
      <g>
       <use xlink:href="#m2b9c31d5ad" x="109.44" y="297.420886" style="fill: #68737d; stroke: #68737d; stroke-width: 0.8"/>
      </g>
     </g>
     <g id="text_10">
      <!-- 600 -->
      <g style="fill: #68737d" transform="translate(79.535 301.97948) scale(0.12 -0.12)">
       <use xlink:href="#DejaVuSans-19"/>
       <use xlink:href="#DejaVuSans-13" transform="translate(63.625 0)"/>
       <use xlink:href="#DejaVuSans-13" transform="translate(127.25 0)"/>
      </g>
     </g>
    </g>
    <g id="ytick_5">
     <g id="line2d_15">
      <path d="M 109.44 219.441181 
L 1111.68 219.441181 
" clip-path="url(#p66bc9e44ae)" style="fill: none; stroke: #d9e0e5; stroke-opacity: 0.8; stroke-width: 0.8; stroke-linecap: square"/>
     </g>
     <g id="line2d_16">
      <g>
       <use xlink:href="#m2b9c31d5ad" x="109.44" y="219.441181" style="fill: #68737d; stroke: #68737d; stroke-width: 0.8"/>
      </g>
     </g>
     <g id="text_11">
      <!-- 800 -->
      <g style="fill: #68737d" transform="translate(79.535 223.999775) scale(0.12 -0.12)">
       <defs>
        <path id="DejaVuSans-1b" d="M 2034 2216 
Q 1584 2216 1326 1975 
Q 1069 1734 1069 1313 
Q 1069 891 1326 650 
Q 1584 409 2034 409 
Q 2484 409 2743 651 
Q 3003 894 3003 1313 
Q 3003 1734 2745 1975 
Q 2488 2216 2034 2216 
z
M 1403 2484 
Q 997 2584 770 2862 
Q 544 3141 544 3541 
Q 544 4100 942 4425 
Q 1341 4750 2034 4750 
Q 2731 4750 3128 4425 
Q 3525 4100 3525 3541 
Q 3525 3141 3298 2862 
Q 3072 2584 2669 2484 
Q 3125 2378 3379 2068 
Q 3634 1759 3634 1313 
Q 3634 634 3220 271 
Q 2806 -91 2034 -91 
Q 1263 -91 848 271 
Q 434 634 434 1313 
Q 434 1759 690 2068 
Q 947 2378 1403 2484 
z
M 1172 3481 
Q 1172 3119 1398 2916 
Q 1625 2713 2034 2713 
Q 2441 2713 2670 2916 
Q 2900 3119 2900 3481 
Q 2900 3844 2670 4047 
Q 2441 4250 2034 4250 
Q 1625 4250 1398 4047 
Q 1172 3844 1172 3481 
z
" transform="scale(0.015625)"/>
       </defs>
       <use xlink:href="#DejaVuSans-1b"/>
       <use xlink:href="#DejaVuSans-13" transform="translate(63.625 0)"/>
       <use xlink:href="#DejaVuSans-13" transform="translate(127.25 0)"/>
      </g>
     </g>
    </g>
    <g id="ytick_6">
     <g id="line2d_17">
      <path d="M 109.44 141.461476 
L 1111.68 141.461476 
" clip-path="url(#p66bc9e44ae)" style="fill: none; stroke: #d9e0e5; stroke-opacity: 0.8; stroke-width: 0.8; stroke-linecap: square"/>
     </g>
     <g id="line2d_18">
      <g>
       <use xlink:href="#m2b9c31d5ad" x="109.44" y="141.461476" style="fill: #68737d; stroke: #68737d; stroke-width: 0.8"/>
      </g>
     </g>
     <g id="text_12">
      <!-- 1000 -->
      <g style="fill: #68737d" transform="translate(71.9 146.02007) scale(0.12 -0.12)">
       <defs>
        <path id="DejaVuSans-14" d="M 794 531 
L 1825 531 
L 1825 4091 
L 703 3866 
L 703 4441 
L 1819 4666 
L 2450 4666 
L 2450 531 
L 3481 531 
L 3481 0 
L 794 0 
L 794 531 
z
" transform="scale(0.015625)"/>
       </defs>
       <use xlink:href="#DejaVuSans-14"/>
       <use xlink:href="#DejaVuSans-13" transform="translate(63.625 0)"/>
       <use xlink:href="#DejaVuSans-13" transform="translate(127.25 0)"/>
       <use xlink:href="#DejaVuSans-13" transform="translate(190.875 0)"/>
      </g>
     </g>
    </g>
    <g id="text_13">
     <!-- Average recorded arrests per calendar day -->
     <g style="fill: #24313a" transform="translate(65.017188 455.845312) rotate(-90) scale(0.12 -0.12)">
      <defs>
       <path id="DejaVuSans-59" d="M 191 3500 
L 800 3500 
L 1894 563 
L 2988 3500 
L 3597 3500 
L 2284 0 
L 1503 0 
L 191 3500 
z
" transform="scale(0.015625)"/>
       <path id="DejaVuSans-4a" d="M 2906 1791 
Q 2906 2416 2648 2759 
Q 2391 3103 1925 3103 
Q 1463 3103 1205 2759 
Q 947 2416 947 1791 
Q 947 1169 1205 825 
Q 1463 481 1925 481 
Q 2391 481 2648 825 
Q 2906 1169 2906 1791 
z
M 3481 434 
Q 3481 -459 3084 -895 
Q 2688 -1331 1869 -1331 
Q 1566 -1331 1297 -1286 
Q 1028 -1241 775 -1147 
L 775 -588 
Q 1028 -725 1275 -790 
Q 1522 -856 1778 -856 
Q 2344 -856 2625 -561 
Q 2906 -266 2906 331 
L 2906 616 
Q 2728 306 2450 153 
Q 2172 0 1784 0 
Q 1141 0 747 490 
Q 353 981 353 1791 
Q 353 2603 747 3093 
Q 1141 3584 1784 3584 
Q 2172 3584 2450 3431 
Q 2728 3278 2906 2969 
L 2906 3500 
L 3481 3500 
L 3481 434 
z
" transform="scale(0.015625)"/>
       <path id="DejaVuSans-46" d="M 3122 3366 
L 3122 2828 
Q 2878 2963 2633 3030 
Q 2388 3097 2138 3097 
Q 1578 3097 1268 2742 
Q 959 2388 959 1747 
Q 959 1106 1268 751 
Q 1578 397 2138 397 
Q 2388 397 2633 464 
Q 2878 531 3122 666 
L 3122 134 
Q 2881 22 2623 -34 
Q 2366 -91 2075 -91 
Q 1284 -91 818 406 
Q 353 903 353 1747 
Q 353 2603 823 3093 
Q 1294 3584 2113 3584 
Q 2378 3584 2631 3529 
Q 2884 3475 3122 3366 
z
" transform="scale(0.015625)"/>
       <path id="DejaVuSans-52" d="M 1959 3097 
Q 1497 3097 1228 2736 
Q 959 2375 959 1747 
Q 959 1119 1226 758 
Q 1494 397 1959 397 
Q 2419 397 2687 759 
Q 2956 1122 2956 1747 
Q 2956 2369 2687 2733 
Q 2419 3097 1959 3097 
z
M 1959 3584 
Q 2709 3584 3137 3096 
Q 3566 2609 3566 1747 
Q 3566 888 3137 398 
Q 2709 -91 1959 -91 
Q 1206 -91 779 398 
Q 353 888 353 1747 
Q 353 2609 779 3096 
Q 1206 3584 1959 3584 
z
" transform="scale(0.015625)"/>
       <path id="DejaVuSans-47" d="M 2906 2969 
L 2906 4863 
L 3481 4863 
L 3481 0 
L 2906 0 
L 2906 525 
Q 2725 213 2448 61 
Q 2172 -91 1784 -91 
Q 1150 -91 751 415 
Q 353 922 353 1747 
Q 353 2572 751 3078 
Q 1150 3584 1784 3584 
Q 2172 3584 2448 3432 
Q 2725 3281 2906 2969 
z
M 947 1747 
Q 947 1113 1208 752 
Q 1469 391 1925 391 
Q 2381 391 2643 752 
Q 2906 1113 2906 1747 
Q 2906 2381 2643 2742 
Q 2381 3103 1925 3103 
Q 1469 3103 1208 2742 
Q 947 2381 947 1747 
z
" transform="scale(0.015625)"/>
       <path id="DejaVuSans-56" d="M 2834 3397 
L 2834 2853 
Q 2591 2978 2328 3040 
Q 2066 3103 1784 3103 
Q 1356 3103 1142 2972 
Q 928 2841 928 2578 
Q 928 2378 1081 2264 
Q 1234 2150 1697 2047 
L 1894 2003 
Q 2506 1872 2764 1633 
Q 3022 1394 3022 966 
Q 3022 478 2636 193 
Q 2250 -91 1575 -91 
Q 1294 -91 989 -36 
Q 684 19 347 128 
L 347 722 
Q 666 556 975 473 
Q 1284 391 1588 391 
Q 1994 391 2212 530 
Q 2431 669 2431 922 
Q 2431 1156 2273 1281 
Q 2116 1406 1581 1522 
L 1381 1569 
Q 847 1681 609 1914 
Q 372 2147 372 2553 
Q 372 3047 722 3315 
Q 1072 3584 1716 3584 
Q 2034 3584 2315 3537 
Q 2597 3491 2834 3397 
z
" transform="scale(0.015625)"/>
       <path id="DejaVuSans-57" d="M 1172 4494 
L 1172 3500 
L 2356 3500 
L 2356 3053 
L 1172 3053 
L 1172 1153 
Q 1172 725 1289 603 
Q 1406 481 1766 481 
L 2356 481 
L 2356 0 
L 1766 0 
Q 1100 0 847 248 
Q 594 497 594 1153 
L 594 3053 
L 172 3053 
L 172 3500 
L 594 3500 
L 594 4494 
L 1172 4494 
z
" transform="scale(0.015625)"/>
       <path id="DejaVuSans-4f" d="M 603 4863 
L 1178 4863 
L 1178 0 
L 603 0 
L 603 4863 
z
" transform="scale(0.015625)"/>
      </defs>
      <use xlink:href="#DejaVuSans-24"/>
      <use xlink:href="#DejaVuSans-59" transform="translate(62.546875 0)"/>
      <use xlink:href="#DejaVuSans-48" transform="translate(121.734375 0)"/>
      <use xlink:href="#DejaVuSans-55" transform="translate(183.265625 0)"/>
      <use xlink:href="#DejaVuSans-44" transform="translate(224.375 0)"/>
      <use xlink:href="#DejaVuSans-4a" transform="translate(285.65625 0)"/>
      <use xlink:href="#DejaVuSans-48" transform="translate(349.140625 0)"/>
      <use xlink:href="#DejaVuSans-3" transform="translate(410.671875 0)"/>
      <use xlink:href="#DejaVuSans-55" transform="translate(442.453125 0)"/>
      <use xlink:href="#DejaVuSans-48" transform="translate(481.359375 0)"/>
      <use xlink:href="#DejaVuSans-46" transform="translate(542.890625 0)"/>
      <use xlink:href="#DejaVuSans-52" transform="translate(597.875 0)"/>
      <use xlink:href="#DejaVuSans-55" transform="translate(659.0625 0)"/>
      <use xlink:href="#DejaVuSans-47" transform="translate(698.421875 0)"/>
      <use xlink:href="#DejaVuSans-48" transform="translate(761.90625 0)"/>
      <use xlink:href="#DejaVuSans-47" transform="translate(823.4375 0)"/>
      <use xlink:href="#DejaVuSans-3" transform="translate(886.921875 0)"/>
      <use xlink:href="#DejaVuSans-44" transform="translate(918.703125 0)"/>
      <use xlink:href="#DejaVuSans-55" transform="translate(979.984375 0)"/>
      <use xlink:href="#DejaVuSans-55" transform="translate(1019.34375 0)"/>
      <use xlink:href="#DejaVuSans-48" transform="translate(1058.25 0)"/>
      <use xlink:href="#DejaVuSans-56" transform="translate(1119.78125 0)"/>
      <use xlink:href="#DejaVuSans-57" transform="translate(1171.875 0)"/>
      <use xlink:href="#DejaVuSans-56" transform="translate(1211.078125 0)"/>
      <use xlink:href="#DejaVuSans-3" transform="translate(1263.171875 0)"/>
      <use xlink:href="#DejaVuSans-53" transform="translate(1294.953125 0)"/>
      <use xlink:href="#DejaVuSans-48" transform="translate(1358.4375 0)"/>
      <use xlink:href="#DejaVuSans-55" transform="translate(1419.96875 0)"/>
      <use xlink:href="#DejaVuSans-3" transform="translate(1461.078125 0)"/>
      <use xlink:href="#DejaVuSans-46" transform="translate(1492.859375 0)"/>
      <use xlink:href="#DejaVuSans-44" transform="translate(1547.84375 0)"/>
      <use xlink:href="#DejaVuSans-4f" transform="translate(1609.125 0)"/>
      <use xlink:href="#DejaVuSans-48" transform="translate(1636.90625 0)"/>
      <use xlink:href="#DejaVuSans-51" transform="translate(1698.4375 0)"/>
      <use xlink:href="#DejaVuSans-47" transform="translate(1761.8125 0)"/>
      <use xlink:href="#DejaVuSans-44" transform="translate(1825.296875 0)"/>
      <use xlink:href="#DejaVuSans-55" transform="translate(1886.578125 0)"/>
      <use xlink:href="#DejaVuSans-3" transform="translate(1927.6875 0)"/>
      <use xlink:href="#DejaVuSans-47" transform="translate(1959.46875 0)"/>
      <use xlink:href="#DejaVuSans-44" transform="translate(2022.953125 0)"/>
      <use xlink:href="#DejaVuSans-5c" transform="translate(2084.234375 0)"/>
     </g>
    </g>
   </g>
   <g id="patch_3">
    <path d="M 109.44 531.36 
L 109.44 123.12 
" style="fill: none; stroke: #24313a; stroke-width: 0.8; stroke-linejoin: miter; stroke-linecap: square"/>
   </g>
   <g id="patch_4">
    <path d="M 109.44 531.36 
L 1111.68 531.36 
" style="fill: none; stroke: #24313a; stroke-width: 0.8; stroke-linejoin: miter; stroke-linecap: square"/>
   </g>
   <g id="patch_5">
    <path d="M 154.996364 531.36 
L 261.240887 531.36 
L 261.240887 235.263515 
L 154.996364 235.263515 
z
" clip-path="url(#p66bc9e44ae)" style="fill: #0072b2; stroke: #174a6e; stroke-width: 1.3; stroke-linejoin: miter"/>
   </g>
   <g id="patch_6">
    <path d="M 315.972914 531.36 
L 422.217437 531.36 
L 422.217437 237.975286 
L 315.972914 237.975286 
z
" clip-path="url(#p66bc9e44ae)" style="fill: #0072b2; stroke: #174a6e; stroke-width: 1.3; stroke-linejoin: miter"/>
   </g>
   <g id="patch_7">
    <path d="M 476.949464 531.36 
L 583.193987 531.36 
L 583.193987 220.749228 
L 476.949464 220.749228 
z
" clip-path="url(#p66bc9e44ae)" style="fill: #0072b2; stroke: #174a6e; stroke-width: 1.3; stroke-linejoin: miter"/>
   </g>
   <g id="patch_8">
    <path d="M 637.926013 531.36 
L 744.170536 531.36 
L 744.170536 204.768 
L 637.926013 204.768 
z
" clip-path="url(#p66bc9e44ae)" style="fill: #0072b2; stroke: #174a6e; stroke-width: 1.3; stroke-linejoin: miter"/>
   </g>
   <g id="patch_9">
    <path d="M 798.902563 531.36 
L 905.147086 531.36 
L 905.147086 215.315803 
L 798.902563 215.315803 
z
" clip-path="url(#p66bc9e44ae)" style="fill: #0072b2; stroke: #174a6e; stroke-width: 1.3; stroke-linejoin: miter"/>
   </g>
   <g id="patch_10">
    <path d="M 959.879113 531.36 
L 1066.123636 531.36 
L 1066.123636 241.457451 
L 959.879113 241.457451 
z
" clip-path="url(#p66bc9e44ae)" style="fill: #0072b2; stroke: #174a6e; stroke-width: 1.3; stroke-linejoin: miter"/>
   </g>
   <g id="text_14">
    <!-- 759.4 -->
    <g style="fill: #24313a" transform="translate(193.088859 225.392734) scale(0.105 -0.105)">
     <defs>
      <path id="DejaVuSans-1a" d="M 525 4666 
L 3525 4666 
L 3525 4397 
L 1831 0 
L 1172 0 
L 2766 4134 
L 525 4134 
L 525 4666 
z
" transform="scale(0.015625)"/>
      <path id="DejaVuSans-18" d="M 691 4666 
L 3169 4666 
L 3169 4134 
L 1269 4134 
L 1269 2991 
Q 1406 3038 1543 3061 
Q 1681 3084 1819 3084 
Q 2600 3084 3056 2656 
Q 3513 2228 3513 1497 
Q 3513 744 3044 326 
Q 2575 -91 1722 -91 
Q 1428 -91 1123 -41 
Q 819 9 494 109 
L 494 744 
Q 775 591 1075 516 
Q 1375 441 1709 441 
Q 2250 441 2565 725 
Q 2881 1009 2881 1497 
Q 2881 1984 2565 2268 
Q 2250 2553 1709 2553 
Q 1456 2553 1204 2497 
Q 953 2441 691 2322 
L 691 4666 
z
" transform="scale(0.015625)"/>
      <path id="DejaVuSans-1c" d="M 703 97 
L 703 672 
Q 941 559 1184 500 
Q 1428 441 1663 441 
Q 2288 441 2617 861 
Q 2947 1281 2994 2138 
Q 2813 1869 2534 1725 
Q 2256 1581 1919 1581 
Q 1219 1581 811 2004 
Q 403 2428 403 3163 
Q 403 3881 828 4315 
Q 1253 4750 1959 4750 
Q 2769 4750 3195 4129 
Q 3622 3509 3622 2328 
Q 3622 1225 3098 567 
Q 2575 -91 1691 -91 
Q 1453 -91 1209 -44 
Q 966 3 703 97 
z
M 1959 2075 
Q 2384 2075 2632 2365 
Q 2881 2656 2881 3163 
Q 2881 3666 2632 3958 
Q 2384 4250 1959 4250 
Q 1534 4250 1286 3958 
Q 1038 3666 1038 3163 
Q 1038 2656 1286 2365 
Q 1534 2075 1959 2075 
z
" transform="scale(0.015625)"/>
      <path id="DejaVuSans-11" d="M 684 794 
L 1344 794 
L 1344 0 
L 684 0 
L 684 794 
z
" transform="scale(0.015625)"/>
     </defs>
     <use xlink:href="#DejaVuSans-1a"/>
     <use xlink:href="#DejaVuSans-18" transform="translate(63.625 0)"/>
     <use xlink:href="#DejaVuSans-1c" transform="translate(127.25 0)"/>
     <use xlink:href="#DejaVuSans-11" transform="translate(190.875 0)"/>
     <use xlink:href="#DejaVuSans-17" transform="translate(222.65625 0)"/>
    </g>
   </g>
   <g id="text_15">
    <!-- 752.5 -->
    <g style="fill: #24313a" transform="translate(354.065409 228.104505) scale(0.105 -0.105)">
     <use xlink:href="#DejaVuSans-1a"/>
     <use xlink:href="#DejaVuSans-18" transform="translate(63.625 0)"/>
     <use xlink:href="#DejaVuSans-15" transform="translate(127.25 0)"/>
     <use xlink:href="#DejaVuSans-11" transform="translate(190.875 0)"/>
     <use xlink:href="#DejaVuSans-18" transform="translate(222.65625 0)"/>
    </g>
   </g>
   <g id="text_16">
    <!-- 796.6 -->
    <g style="fill: #24313a" transform="translate(515.041959 210.878447) scale(0.105 -0.105)">
     <use xlink:href="#DejaVuSans-1a"/>
     <use xlink:href="#DejaVuSans-1c" transform="translate(63.625 0)"/>
     <use xlink:href="#DejaVuSans-19" transform="translate(127.25 0)"/>
     <use xlink:href="#DejaVuSans-11" transform="translate(190.875 0)"/>
     <use xlink:href="#DejaVuSans-19" transform="translate(222.65625 0)"/>
    </g>
   </g>
   <g id="text_17">
    <!-- 837.6 -->
    <g style="fill: #24313a" transform="translate(676.018509 194.897219) scale(0.105 -0.105)">
     <defs>
      <path id="DejaVuSans-16" d="M 2597 2516 
Q 3050 2419 3304 2112 
Q 3559 1806 3559 1356 
Q 3559 666 3084 287 
Q 2609 -91 1734 -91 
Q 1441 -91 1130 -33 
Q 819 25 488 141 
L 488 750 
Q 750 597 1062 519 
Q 1375 441 1716 441 
Q 2309 441 2620 675 
Q 2931 909 2931 1356 
Q 2931 1769 2642 2001 
Q 2353 2234 1838 2234 
L 1294 2234 
L 1294 2753 
L 1863 2753 
Q 2328 2753 2575 2939 
Q 2822 3125 2822 3475 
Q 2822 3834 2567 4026 
Q 2313 4219 1838 4219 
Q 1578 4219 1281 4162 
Q 984 4106 628 3988 
L 628 4550 
Q 988 4650 1302 4700 
Q 1616 4750 1894 4750 
Q 2613 4750 3031 4423 
Q 3450 4097 3450 3541 
Q 3450 3153 3228 2886 
Q 3006 2619 2597 2516 
z
" transform="scale(0.015625)"/>
     </defs>
     <use xlink:href="#DejaVuSans-1b"/>
     <use xlink:href="#DejaVuSans-16" transform="translate(63.625 0)"/>
     <use xlink:href="#DejaVuSans-1a" transform="translate(127.25 0)"/>
     <use xlink:href="#DejaVuSans-11" transform="translate(190.875 0)"/>
     <use xlink:href="#DejaVuSans-19" transform="translate(222.65625 0)"/>
    </g>
   </g>
   <g id="text_18">
    <!-- 810.6 -->
    <g style="fill: #24313a" transform="translate(836.995059 205.445022) scale(0.105 -0.105)">
     <use xlink:href="#DejaVuSans-1b"/>
     <use xlink:href="#DejaVuSans-14" transform="translate(63.625 0)"/>
     <use xlink:href="#DejaVuSans-13" transform="translate(127.25 0)"/>
     <use xlink:href="#DejaVuSans-11" transform="translate(190.875 0)"/>
     <use xlink:href="#DejaVuSans-19" transform="translate(222.65625 0)"/>
    </g>
   </g>
   <g id="text_19">
    <!-- 743.5 -->
    <g style="fill: #24313a" transform="translate(997.971609 231.58667) scale(0.105 -0.105)">
     <use xlink:href="#DejaVuSans-1a"/>
     <use xlink:href="#DejaVuSans-17" transform="translate(63.625 0)"/>
     <use xlink:href="#DejaVuSans-16" transform="translate(127.25 0)"/>
     <use xlink:href="#DejaVuSans-11" transform="translate(190.875 0)"/>
     <use xlink:href="#DejaVuSans-18" transform="translate(222.65625 0)"/>
    </g>
   </g>
  </g>
  <g id="text_20">
   <!-- Average recorded arrests per calendar day by month -->
   <g style="fill: #24313a" transform="translate(80.64 57.11625) scale(0.24 -0.24)">
    <defs>
     <path id="DejaVuSans-Bold-24" d="M 3419 850 
L 1538 850 
L 1241 0 
L 31 0 
L 1759 4666 
L 3194 4666 
L 4922 0 
L 3713 0 
L 3419 850 
z
M 1838 1716 
L 3116 1716 
L 2478 3572 
L 1838 1716 
z
" transform="scale(0.015625)"/>
     <path id="DejaVuSans-Bold-59" d="M 97 3500 
L 1216 3500 
L 2088 1081 
L 2956 3500 
L 4078 3500 
L 2700 0 
L 1472 0 
L 97 3500 
z
" transform="scale(0.015625)"/>
     <path id="DejaVuSans-Bold-48" d="M 4031 1759 
L 4031 1441 
L 1416 1441 
Q 1456 1047 1700 850 
Q 1944 653 2381 653 
Q 2734 653 3104 758 
Q 3475 863 3866 1075 
L 3866 213 
Q 3469 63 3072 -14 
Q 2675 -91 2278 -91 
Q 1328 -91 801 392 
Q 275 875 275 1747 
Q 275 2603 792 3093 
Q 1309 3584 2216 3584 
Q 3041 3584 3536 3087 
Q 4031 2591 4031 1759 
z
M 2881 2131 
Q 2881 2450 2695 2645 
Q 2509 2841 2209 2841 
Q 1884 2841 1681 2658 
Q 1478 2475 1428 2131 
L 2881 2131 
z
" transform="scale(0.015625)"/>
     <path id="DejaVuSans-Bold-55" d="M 3138 2547 
Q 2991 2616 2845 2648 
Q 2700 2681 2553 2681 
Q 2122 2681 1889 2404 
Q 1656 2128 1656 1613 
L 1656 0 
L 538 0 
L 538 3500 
L 1656 3500 
L 1656 2925 
Q 1872 3269 2151 3426 
Q 2431 3584 2822 3584 
Q 2878 3584 2943 3579 
Q 3009 3575 3134 3559 
L 3138 2547 
z
" transform="scale(0.015625)"/>
     <path id="DejaVuSans-Bold-44" d="M 2106 1575 
Q 1756 1575 1579 1456 
Q 1403 1338 1403 1106 
Q 1403 894 1545 773 
Q 1688 653 1941 653 
Q 2256 653 2472 879 
Q 2688 1106 2688 1447 
L 2688 1575 
L 2106 1575 
z
M 3816 1997 
L 3816 0 
L 2688 0 
L 2688 519 
Q 2463 200 2181 54 
Q 1900 -91 1497 -91 
Q 953 -91 614 226 
Q 275 544 275 1050 
Q 275 1666 698 1953 
Q 1122 2241 2028 2241 
L 2688 2241 
L 2688 2328 
Q 2688 2594 2478 2717 
Q 2269 2841 1825 2841 
Q 1466 2841 1156 2769 
Q 847 2697 581 2553 
L 581 3406 
Q 941 3494 1303 3539 
Q 1666 3584 2028 3584 
Q 2975 3584 3395 3211 
Q 3816 2838 3816 1997 
z
" transform="scale(0.015625)"/>
     <path id="DejaVuSans-Bold-4a" d="M 2919 594 
Q 2688 288 2409 144 
Q 2131 0 1766 0 
Q 1125 0 706 504 
Q 288 1009 288 1791 
Q 288 2575 706 3076 
Q 1125 3578 1766 3578 
Q 2131 3578 2409 3434 
Q 2688 3291 2919 2981 
L 2919 3500 
L 4044 3500 
L 4044 353 
Q 4044 -491 3511 -936 
Q 2978 -1381 1966 -1381 
Q 1638 -1381 1331 -1331 
Q 1025 -1281 716 -1178 
L 716 -306 
Q 1009 -475 1290 -558 
Q 1572 -641 1856 -641 
Q 2406 -641 2662 -400 
Q 2919 -159 2919 353 
L 2919 594 
z
M 2181 2772 
Q 1834 2772 1640 2515 
Q 1447 2259 1447 1791 
Q 1447 1309 1634 1061 
Q 1822 813 2181 813 
Q 2531 813 2725 1069 
Q 2919 1325 2919 1791 
Q 2919 2259 2725 2515 
Q 2531 2772 2181 2772 
z
" transform="scale(0.015625)"/>
     <path id="DejaVuSans-Bold-3" transform="scale(0.015625)"/>
     <path id="DejaVuSans-Bold-46" d="M 3366 3391 
L 3366 2478 
Q 3138 2634 2908 2709 
Q 2678 2784 2431 2784 
Q 1963 2784 1702 2511 
Q 1441 2238 1441 1747 
Q 1441 1256 1702 982 
Q 1963 709 2431 709 
Q 2694 709 2930 787 
Q 3166 866 3366 1019 
L 3366 103 
Q 3103 6 2833 -42 
Q 2563 -91 2291 -91 
Q 1344 -91 809 395 
Q 275 881 275 1747 
Q 275 2613 809 3098 
Q 1344 3584 2291 3584 
Q 2566 3584 2833 3536 
Q 3100 3488 3366 3391 
z
" transform="scale(0.015625)"/>
     <path id="DejaVuSans-Bold-52" d="M 2203 2784 
Q 1831 2784 1636 2517 
Q 1441 2250 1441 1747 
Q 1441 1244 1636 976 
Q 1831 709 2203 709 
Q 2569 709 2762 976 
Q 2956 1244 2956 1747 
Q 2956 2250 2762 2517 
Q 2569 2784 2203 2784 
z
M 2203 3584 
Q 3106 3584 3614 3096 
Q 4122 2609 4122 1747 
Q 4122 884 3614 396 
Q 3106 -91 2203 -91 
Q 1297 -91 786 396 
Q 275 884 275 1747 
Q 275 2609 786 3096 
Q 1297 3584 2203 3584 
z
" transform="scale(0.015625)"/>
     <path id="DejaVuSans-Bold-47" d="M 2919 2988 
L 2919 4863 
L 4044 4863 
L 4044 0 
L 2919 0 
L 2919 506 
Q 2688 197 2409 53 
Q 2131 -91 1766 -91 
Q 1119 -91 703 423 
Q 288 938 288 1747 
Q 288 2556 703 3070 
Q 1119 3584 1766 3584 
Q 2128 3584 2408 3439 
Q 2688 3294 2919 2988 
z
M 2181 722 
Q 2541 722 2730 984 
Q 2919 1247 2919 1747 
Q 2919 2247 2730 2509 
Q 2541 2772 2181 2772 
Q 1825 2772 1636 2509 
Q 1447 2247 1447 1747 
Q 1447 1247 1636 984 
Q 1825 722 2181 722 
z
" transform="scale(0.015625)"/>
     <path id="DejaVuSans-Bold-56" d="M 3272 3391 
L 3272 2541 
Q 2913 2691 2578 2766 
Q 2244 2841 1947 2841 
Q 1628 2841 1473 2761 
Q 1319 2681 1319 2516 
Q 1319 2381 1436 2309 
Q 1553 2238 1856 2203 
L 2053 2175 
Q 2913 2066 3209 1816 
Q 3506 1566 3506 1031 
Q 3506 472 3093 190 
Q 2681 -91 1863 -91 
Q 1516 -91 1145 -36 
Q 775 19 384 128 
L 384 978 
Q 719 816 1070 734 
Q 1422 653 1784 653 
Q 2113 653 2278 743 
Q 2444 834 2444 1013 
Q 2444 1163 2330 1236 
Q 2216 1309 1875 1350 
L 1678 1375 
Q 931 1469 631 1722 
Q 331 1975 331 2491 
Q 331 3047 712 3315 
Q 1094 3584 1881 3584 
Q 2191 3584 2531 3537 
Q 2872 3491 3272 3391 
z
" transform="scale(0.015625)"/>
     <path id="DejaVuSans-Bold-57" d="M 1759 4494 
L 1759 3500 
L 2913 3500 
L 2913 2700 
L 1759 2700 
L 1759 1216 
Q 1759 972 1856 886 
Q 1953 800 2241 800 
L 2816 800 
L 2816 0 
L 1856 0 
Q 1194 0 917 276 
Q 641 553 641 1216 
L 641 2700 
L 84 2700 
L 84 3500 
L 641 3500 
L 641 4494 
L 1759 4494 
z
" transform="scale(0.015625)"/>
     <path id="DejaVuSans-Bold-53" d="M 1656 506 
L 1656 -1331 
L 538 -1331 
L 538 3500 
L 1656 3500 
L 1656 2988 
Q 1888 3294 2169 3439 
Q 2450 3584 2816 3584 
Q 3463 3584 3878 3070 
Q 4294 2556 4294 1747 
Q 4294 938 3878 423 
Q 3463 -91 2816 -91 
Q 2450 -91 2169 54 
Q 1888 200 1656 506 
z
M 2400 2772 
Q 2041 2772 1848 2508 
Q 1656 2244 1656 1747 
Q 1656 1250 1848 986 
Q 2041 722 2400 722 
Q 2759 722 2948 984 
Q 3138 1247 3138 1747 
Q 3138 2247 2948 2509 
Q 2759 2772 2400 2772 
z
" transform="scale(0.015625)"/>
     <path id="DejaVuSans-Bold-4f" d="M 538 4863 
L 1656 4863 
L 1656 0 
L 538 0 
L 538 4863 
z
" transform="scale(0.015625)"/>
     <path id="DejaVuSans-Bold-51" d="M 4056 2131 
L 4056 0 
L 2931 0 
L 2931 347 
L 2931 1631 
Q 2931 2084 2911 2256 
Q 2891 2428 2841 2509 
Q 2775 2619 2662 2680 
Q 2550 2741 2406 2741 
Q 2056 2741 1856 2470 
Q 1656 2200 1656 1722 
L 1656 0 
L 538 0 
L 538 3500 
L 1656 3500 
L 1656 2988 
Q 1909 3294 2193 3439 
Q 2478 3584 2822 3584 
Q 3428 3584 3742 3212 
Q 4056 2841 4056 2131 
z
" transform="scale(0.015625)"/>
     <path id="DejaVuSans-Bold-5c" d="M 78 3500 
L 1197 3500 
L 2138 1125 
L 2938 3500 
L 4056 3500 
L 2584 -331 
Q 2363 -916 2067 -1148 
Q 1772 -1381 1288 -1381 
L 641 -1381 
L 641 -647 
L 991 -647 
Q 1275 -647 1404 -556 
Q 1534 -466 1606 -231 
L 1638 -134 
L 78 3500 
z
" transform="scale(0.015625)"/>
     <path id="DejaVuSans-Bold-45" d="M 2400 722 
Q 2759 722 2948 984 
Q 3138 1247 3138 1747 
Q 3138 2247 2948 2509 
Q 2759 2772 2400 2772 
Q 2041 2772 1848 2508 
Q 1656 2244 1656 1747 
Q 1656 1250 1848 986 
Q 2041 722 2400 722 
z
M 1656 2988 
Q 1888 3294 2169 3439 
Q 2450 3584 2816 3584 
Q 3463 3584 3878 3070 
Q 4294 2556 4294 1747 
Q 4294 938 3878 423 
Q 3463 -91 2816 -91 
Q 2450 -91 2169 54 
Q 1888 200 1656 506 
L 1656 0 
L 538 0 
L 538 4863 
L 1656 4863 
L 1656 2988 
z
" transform="scale(0.015625)"/>
     <path id="DejaVuSans-Bold-50" d="M 3781 2919 
Q 3994 3244 4286 3414 
Q 4578 3584 4928 3584 
Q 5531 3584 5847 3212 
Q 6163 2841 6163 2131 
L 6163 0 
L 5038 0 
L 5038 1825 
Q 5041 1866 5042 1909 
Q 5044 1953 5044 2034 
Q 5044 2406 4934 2573 
Q 4825 2741 4581 2741 
Q 4263 2741 4089 2478 
Q 3916 2216 3909 1719 
L 3909 0 
L 2784 0 
L 2784 1825 
Q 2784 2406 2684 2573 
Q 2584 2741 2328 2741 
Q 2006 2741 1831 2477 
Q 1656 2213 1656 1722 
L 1656 0 
L 531 0 
L 531 3500 
L 1656 3500 
L 1656 2988 
Q 1863 3284 2130 3434 
Q 2397 3584 2719 3584 
Q 3081 3584 3359 3409 
Q 3638 3234 3781 2919 
z
" transform="scale(0.015625)"/>
     <path id="DejaVuSans-Bold-4b" d="M 4056 2131 
L 4056 0 
L 2931 0 
L 2931 347 
L 2931 1625 
Q 2931 2084 2911 2256 
Q 2891 2428 2841 2509 
Q 2775 2619 2662 2680 
Q 2550 2741 2406 2741 
Q 2056 2741 1856 2470 
Q 1656 2200 1656 1722 
L 1656 0 
L 538 0 
L 538 4863 
L 1656 4863 
L 1656 2988 
Q 1909 3294 2193 3439 
Q 2478 3584 2822 3584 
Q 3428 3584 3742 3212 
Q 4056 2841 4056 2131 
z
" transform="scale(0.015625)"/>
    </defs>
    <use xlink:href="#DejaVuSans-Bold-24"/>
    <use xlink:href="#DejaVuSans-Bold-59" transform="translate(73.828125 0)"/>
    <use xlink:href="#DejaVuSans-Bold-48" transform="translate(139.015625 0)"/>
    <use xlink:href="#DejaVuSans-Bold-55" transform="translate(206.84375 0)"/>
    <use xlink:href="#DejaVuSans-Bold-44" transform="translate(256.15625 0)"/>
    <use xlink:href="#DejaVuSans-Bold-4a" transform="translate(323.640625 0)"/>
    <use xlink:href="#DejaVuSans-Bold-48" transform="translate(395.21875 0)"/>
    <use xlink:href="#DejaVuSans-Bold-3" transform="translate(463.046875 0)"/>
    <use xlink:href="#DejaVuSans-Bold-55" transform="translate(497.859375 0)"/>
    <use xlink:href="#DejaVuSans-Bold-48" transform="translate(547.171875 0)"/>
    <use xlink:href="#DejaVuSans-Bold-46" transform="translate(615 0)"/>
    <use xlink:href="#DejaVuSans-Bold-52" transform="translate(674.28125 0)"/>
    <use xlink:href="#DejaVuSans-Bold-55" transform="translate(742.984375 0)"/>
    <use xlink:href="#DejaVuSans-Bold-47" transform="translate(792.296875 0)"/>
    <use xlink:href="#DejaVuSans-Bold-48" transform="translate(863.875 0)"/>
    <use xlink:href="#DejaVuSans-Bold-47" transform="translate(931.703125 0)"/>
    <use xlink:href="#DejaVuSans-Bold-3" transform="translate(1003.28125 0)"/>
    <use xlink:href="#DejaVuSans-Bold-44" transform="translate(1038.09375 0)"/>
    <use xlink:href="#DejaVuSans-Bold-55" transform="translate(1105.578125 0)"/>
    <use xlink:href="#DejaVuSans-Bold-55" transform="translate(1154.890625 0)"/>
    <use xlink:href="#DejaVuSans-Bold-48" transform="translate(1204.203125 0)"/>
    <use xlink:href="#DejaVuSans-Bold-56" transform="translate(1272.03125 0)"/>
    <use xlink:href="#DejaVuSans-Bold-57" transform="translate(1331.546875 0)"/>
    <use xlink:href="#DejaVuSans-Bold-56" transform="translate(1379.34375 0)"/>
    <use xlink:href="#DejaVuSans-Bold-3" transform="translate(1438.859375 0)"/>
    <use xlink:href="#DejaVuSans-Bold-53" transform="translate(1473.671875 0)"/>
    <use xlink:href="#DejaVuSans-Bold-48" transform="translate(1545.25 0)"/>
    <use xlink:href="#DejaVuSans-Bold-55" transform="translate(1613.078125 0)"/>
    <use xlink:href="#DejaVuSans-Bold-3" transform="translate(1662.390625 0)"/>
    <use xlink:href="#DejaVuSans-Bold-46" transform="translate(1697.203125 0)"/>
    <use xlink:href="#DejaVuSans-Bold-44" transform="translate(1756.484375 0)"/>
    <use xlink:href="#DejaVuSans-Bold-4f" transform="translate(1823.96875 0)"/>
    <use xlink:href="#DejaVuSans-Bold-48" transform="translate(1858.25 0)"/>
    <use xlink:href="#DejaVuSans-Bold-51" transform="translate(1926.078125 0)"/>
    <use xlink:href="#DejaVuSans-Bold-47" transform="translate(1997.265625 0)"/>
    <use xlink:href="#DejaVuSans-Bold-44" transform="translate(2068.84375 0)"/>
    <use xlink:href="#DejaVuSans-Bold-55" transform="translate(2136.328125 0)"/>
    <use xlink:href="#DejaVuSans-Bold-3" transform="translate(2185.640625 0)"/>
    <use xlink:href="#DejaVuSans-Bold-47" transform="translate(2220.453125 0)"/>
    <use xlink:href="#DejaVuSans-Bold-44" transform="translate(2292.03125 0)"/>
    <use xlink:href="#DejaVuSans-Bold-5c" transform="translate(2356.4375 0)"/>
    <use xlink:href="#DejaVuSans-Bold-3" transform="translate(2421.625 0)"/>
    <use xlink:href="#DejaVuSans-Bold-45" transform="translate(2456.4375 0)"/>
    <use xlink:href="#DejaVuSans-Bold-5c" transform="translate(2528.015625 0)"/>
    <use xlink:href="#DejaVuSans-Bold-3" transform="translate(2593.203125 0)"/>
    <use xlink:href="#DejaVuSans-Bold-50" transform="translate(2628.015625 0)"/>
    <use xlink:href="#DejaVuSans-Bold-52" transform="translate(2732.21875 0)"/>
    <use xlink:href="#DejaVuSans-Bold-51" transform="translate(2800.921875 0)"/>
    <use xlink:href="#DejaVuSans-Bold-57" transform="translate(2872.109375 0)"/>
    <use xlink:href="#DejaVuSans-Bold-4b" transform="translate(2919.90625 0)"/>
   </g>
  </g>
  <g id="text_21">
   <!-- All six observed months are complete calendar months; totals are divided by each month's calendar days -->
   <g style="fill: #68737d" transform="translate(80.64 84.397969) scale(0.13 -0.13)">
    <defs>
     <path id="DejaVuSans-4c" d="M 603 3500 
L 1178 3500 
L 1178 0 
L 603 0 
L 603 3500 
z
M 603 4863 
L 1178 4863 
L 1178 4134 
L 603 4134 
L 603 4863 
z
" transform="scale(0.015625)"/>
     <path id="DejaVuSans-5b" d="M 3513 3500 
L 2247 1797 
L 3578 0 
L 2900 0 
L 1881 1375 
L 863 0 
L 184 0 
L 1544 1831 
L 300 3500 
L 978 3500 
L 1906 2253 
L 2834 3500 
L 3513 3500 
z
" transform="scale(0.015625)"/>
     <path id="DejaVuSans-50" d="M 3328 2828 
Q 3544 3216 3844 3400 
Q 4144 3584 4550 3584 
Q 5097 3584 5394 3201 
Q 5691 2819 5691 2113 
L 5691 0 
L 5113 0 
L 5113 2094 
Q 5113 2597 4934 2840 
Q 4756 3084 4391 3084 
Q 3944 3084 3684 2787 
Q 3425 2491 3425 1978 
L 3425 0 
L 2847 0 
L 2847 2094 
Q 2847 2600 2669 2842 
Q 2491 3084 2119 3084 
Q 1678 3084 1418 2786 
Q 1159 2488 1159 1978 
L 1159 0 
L 581 0 
L 581 3500 
L 1159 3500 
L 1159 2956 
Q 1356 3278 1631 3431 
Q 1906 3584 2284 3584 
Q 2666 3584 2933 3390 
Q 3200 3197 3328 2828 
z
" transform="scale(0.015625)"/>
     <path id="DejaVuSans-4b" d="M 3513 2113 
L 3513 0 
L 2938 0 
L 2938 2094 
Q 2938 2591 2744 2837 
Q 2550 3084 2163 3084 
Q 1697 3084 1428 2787 
Q 1159 2491 1159 1978 
L 1159 0 
L 581 0 
L 581 4863 
L 1159 4863 
L 1159 2956 
Q 1366 3272 1645 3428 
Q 1925 3584 2291 3584 
Q 2894 3584 3203 3211 
Q 3513 2838 3513 2113 
z
" transform="scale(0.015625)"/>
     <path id="DejaVuSans-1e" d="M 750 3309 
L 1409 3309 
L 1409 2516 
L 750 2516 
L 750 3309 
z
M 750 794 
L 1409 794 
L 1409 256 
L 897 -744 
L 494 -744 
L 750 256 
L 750 794 
z
" transform="scale(0.015625)"/>
     <path id="DejaVuSans-a" d="M 1147 4666 
L 1147 2931 
L 616 2931 
L 616 4666 
L 1147 4666 
z
" transform="scale(0.015625)"/>
    </defs>
    <use xlink:href="#DejaVuSans-24"/>
    <use xlink:href="#DejaVuSans-4f" transform="translate(68.40625 0)"/>
    <use xlink:href="#DejaVuSans-4f" transform="translate(96.1875 0)"/>
    <use xlink:href="#DejaVuSans-3" transform="translate(123.96875 0)"/>
    <use xlink:href="#DejaVuSans-56" transform="translate(155.75 0)"/>
    <use xlink:href="#DejaVuSans-4c" transform="translate(207.84375 0)"/>
    <use xlink:href="#DejaVuSans-5b" transform="translate(235.625 0)"/>
    <use xlink:href="#DejaVuSans-3" transform="translate(294.8125 0)"/>
    <use xlink:href="#DejaVuSans-52" transform="translate(326.59375 0)"/>
    <use xlink:href="#DejaVuSans-45" transform="translate(387.78125 0)"/>
    <use xlink:href="#DejaVuSans-56" transform="translate(451.265625 0)"/>
    <use xlink:href="#DejaVuSans-48" transform="translate(503.359375 0)"/>
    <use xlink:href="#DejaVuSans-55" transform="translate(564.890625 0)"/>
    <use xlink:href="#DejaVuSans-59" transform="translate(606 0)"/>
    <use xlink:href="#DejaVuSans-48" transform="translate(665.1875 0)"/>
    <use xlink:href="#DejaVuSans-47" transform="translate(726.71875 0)"/>
    <use xlink:href="#DejaVuSans-3" transform="translate(790.203125 0)"/>
    <use xlink:href="#DejaVuSans-50" transform="translate(821.984375 0)"/>
    <use xlink:href="#DejaVuSans-52" transform="translate(919.390625 0)"/>
    <use xlink:href="#DejaVuSans-51" transform="translate(980.578125 0)"/>
    <use xlink:href="#DejaVuSans-57" transform="translate(1043.953125 0)"/>
    <use xlink:href="#DejaVuSans-4b" transform="translate(1083.15625 0)"/>
    <use xlink:href="#DejaVuSans-56" transform="translate(1146.53125 0)"/>
    <use xlink:href="#DejaVuSans-3" transform="translate(1198.625 0)"/>
    <use xlink:href="#DejaVuSans-44" transform="translate(1230.40625 0)"/>
    <use xlink:href="#DejaVuSans-55" transform="translate(1291.6875 0)"/>
    <use xlink:href="#DejaVuSans-48" transform="translate(1330.59375 0)"/>
    <use xlink:href="#DejaVuSans-3" transform="translate(1392.125 0)"/>
    <use xlink:href="#DejaVuSans-46" transform="translate(1423.90625 0)"/>
    <use xlink:href="#DejaVuSans-52" transform="translate(1478.890625 0)"/>
    <use xlink:href="#DejaVuSans-50" transform="translate(1540.078125 0)"/>
    <use xlink:href="#DejaVuSans-53" transform="translate(1637.484375 0)"/>
    <use xlink:href="#DejaVuSans-4f" transform="translate(1700.96875 0)"/>
    <use xlink:href="#DejaVuSans-48" transform="translate(1728.75 0)"/>
    <use xlink:href="#DejaVuSans-57" transform="translate(1790.28125 0)"/>
    <use xlink:href="#DejaVuSans-48" transform="translate(1829.484375 0)"/>
    <use xlink:href="#DejaVuSans-3" transform="translate(1891.015625 0)"/>
    <use xlink:href="#DejaVuSans-46" transform="translate(1922.796875 0)"/>
    <use xlink:href="#DejaVuSans-44" transform="translate(1977.78125 0)"/>
    <use xlink:href="#DejaVuSans-4f" transform="translate(2039.0625 0)"/>
    <use xlink:href="#DejaVuSans-48" transform="translate(2066.84375 0)"/>
    <use xlink:href="#DejaVuSans-51" transform="translate(2128.375 0)"/>
    <use xlink:href="#DejaVuSans-47" transform="translate(2191.75 0)"/>
    <use xlink:href="#DejaVuSans-44" transform="translate(2255.234375 0)"/>
    <use xlink:href="#DejaVuSans-55" transform="translate(2316.515625 0)"/>
    <use xlink:href="#DejaVuSans-3" transform="translate(2357.625 0)"/>
    <use xlink:href="#DejaVuSans-50" transform="translate(2389.40625 0)"/>
    <use xlink:href="#DejaVuSans-52" transform="translate(2486.8125 0)"/>
    <use xlink:href="#DejaVuSans-51" transform="translate(2548 0)"/>
    <use xlink:href="#DejaVuSans-57" transform="translate(2611.375 0)"/>
    <use xlink:href="#DejaVuSans-4b" transform="translate(2650.578125 0)"/>
    <use xlink:href="#DejaVuSans-56" transform="translate(2713.953125 0)"/>
    <use xlink:href="#DejaVuSans-1e" transform="translate(2766.046875 0)"/>
    <use xlink:href="#DejaVuSans-3" transform="translate(2799.734375 0)"/>
    <use xlink:href="#DejaVuSans-57" transform="translate(2831.515625 0)"/>
    <use xlink:href="#DejaVuSans-52" transform="translate(2870.71875 0)"/>
    <use xlink:href="#DejaVuSans-57" transform="translate(2931.90625 0)"/>
    <use xlink:href="#DejaVuSans-44" transform="translate(2971.109375 0)"/>
    <use xlink:href="#DejaVuSans-4f" transform="translate(3032.390625 0)"/>
    <use xlink:href="#DejaVuSans-56" transform="translate(3060.171875 0)"/>
    <use xlink:href="#DejaVuSans-3" transform="translate(3112.265625 0)"/>
    <use xlink:href="#DejaVuSans-44" transform="translate(3144.046875 0)"/>
    <use xlink:href="#DejaVuSans-55" transform="translate(3205.328125 0)"/>
    <use xlink:href="#DejaVuSans-48" transform="translate(3244.234375 0)"/>
    <use xlink:href="#DejaVuSans-3" transform="translate(3305.765625 0)"/>
    <use xlink:href="#DejaVuSans-47" transform="translate(3337.546875 0)"/>
    <use xlink:href="#DejaVuSans-4c" transform="translate(3401.03125 0)"/>
    <use xlink:href="#DejaVuSans-59" transform="translate(3428.8125 0)"/>
    <use xlink:href="#DejaVuSans-4c" transform="translate(3488 0)"/>
    <use xlink:href="#DejaVuSans-47" transform="translate(3515.78125 0)"/>
    <use xlink:href="#DejaVuSans-48" transform="translate(3579.265625 0)"/>
    <use xlink:href="#DejaVuSans-47" transform="translate(3640.796875 0)"/>
    <use xlink:href="#DejaVuSans-3" transform="translate(3704.28125 0)"/>
    <use xlink:href="#DejaVuSans-45" transform="translate(3736.0625 0)"/>
    <use xlink:href="#DejaVuSans-5c" transform="translate(3799.546875 0)"/>
    <use xlink:href="#DejaVuSans-3" transform="translate(3858.734375 0)"/>
    <use xlink:href="#DejaVuSans-48" transform="translate(3890.515625 0)"/>
    <use xlink:href="#DejaVuSans-44" transform="translate(3952.046875 0)"/>
    <use xlink:href="#DejaVuSans-46" transform="translate(4013.328125 0)"/>
    <use xlink:href="#DejaVuSans-4b" transform="translate(4068.3125 0)"/>
    <use xlink:href="#DejaVuSans-3" transform="translate(4131.6875 0)"/>
    <use xlink:href="#DejaVuSans-50" transform="translate(4163.46875 0)"/>
    <use xlink:href="#DejaVuSans-52" transform="translate(4260.875 0)"/>
    <use xlink:href="#DejaVuSans-51" transform="translate(4322.0625 0)"/>
    <use xlink:href="#DejaVuSans-57" transform="translate(4385.4375 0)"/>
    <use xlink:href="#DejaVuSans-4b" transform="translate(4424.640625 0)"/>
    <use xlink:href="#DejaVuSans-a" transform="translate(4488.015625 0)"/>
    <use xlink:href="#DejaVuSans-56" transform="translate(4515.5 0)"/>
    <use xlink:href="#DejaVuSans-3" transform="translate(4567.59375 0)"/>
    <use xlink:href="#DejaVuSans-46" transform="translate(4599.375 0)"/>
    <use xlink:href="#DejaVuSans-44" transform="translate(4654.359375 0)"/>
    <use xlink:href="#DejaVuSans-4f" transform="translate(4715.640625 0)"/>
    <use xlink:href="#DejaVuSans-48" transform="translate(4743.421875 0)"/>
    <use xlink:href="#DejaVuSans-51" transform="translate(4804.953125 0)"/>
    <use xlink:href="#DejaVuSans-47" transform="translate(4868.328125 0)"/>
    <use xlink:href="#DejaVuSans-44" transform="translate(4931.8125 0)"/>
    <use xlink:href="#DejaVuSans-55" transform="translate(4993.09375 0)"/>
    <use xlink:href="#DejaVuSans-3" transform="translate(5034.203125 0)"/>
    <use xlink:href="#DejaVuSans-47" transform="translate(5065.984375 0)"/>
    <use xlink:href="#DejaVuSans-44" transform="translate(5129.46875 0)"/>
    <use xlink:href="#DejaVuSans-5c" transform="translate(5190.75 0)"/>
    <use xlink:href="#DejaVuSans-56" transform="translate(5249.9375 0)"/>
   </g>
  </g>
  <g id="text_22">
   <!-- Source: NYC Open Data / NYPD, dataset uip8-fykc; frozen snapshot retrieved 2026-08-22. -->
   <g style="fill: #68737d" transform="translate(80.64 596.877539) scale(0.105 -0.105)">
    <defs>
     <path id="DejaVuSans-36" d="M 3425 4513 
L 3425 3897 
Q 3066 4069 2747 4153 
Q 2428 4238 2131 4238 
Q 1616 4238 1336 4038 
Q 1056 3838 1056 3469 
Q 1056 3159 1242 3001 
Q 1428 2844 1947 2747 
L 2328 2669 
Q 3034 2534 3370 2195 
Q 3706 1856 3706 1288 
Q 3706 609 3251 259 
Q 2797 -91 1919 -91 
Q 1588 -91 1214 -16 
Q 841 59 441 206 
L 441 856 
Q 825 641 1194 531 
Q 1563 422 1919 422 
Q 2459 422 2753 634 
Q 3047 847 3047 1241 
Q 3047 1584 2836 1778 
Q 2625 1972 2144 2069 
L 1759 2144 
Q 1053 2284 737 2584 
Q 422 2884 422 3419 
Q 422 4038 858 4394 
Q 1294 4750 2059 4750 
Q 2388 4750 2728 4690 
Q 3069 4631 3425 4513 
z
" transform="scale(0.015625)"/>
     <path id="DejaVuSans-1d" d="M 750 794 
L 1409 794 
L 1409 0 
L 750 0 
L 750 794 
z
M 750 3309 
L 1409 3309 
L 1409 2516 
L 750 2516 
L 750 3309 
z
" transform="scale(0.015625)"/>
     <path id="DejaVuSans-31" d="M 628 4666 
L 1478 4666 
L 3547 763 
L 3547 4666 
L 4159 4666 
L 4159 0 
L 3309 0 
L 1241 3903 
L 1241 0 
L 628 0 
L 628 4666 
z
" transform="scale(0.015625)"/>
     <path id="DejaVuSans-3c" d="M -13 4666 
L 666 4666 
L 1959 2747 
L 3244 4666 
L 3922 4666 
L 2272 2222 
L 2272 0 
L 1638 0 
L 1638 2222 
L -13 4666 
z
" transform="scale(0.015625)"/>
     <path id="DejaVuSans-26" d="M 4122 4306 
L 4122 3641 
Q 3803 3938 3442 4084 
Q 3081 4231 2675 4231 
Q 1875 4231 1450 3742 
Q 1025 3253 1025 2328 
Q 1025 1406 1450 917 
Q 1875 428 2675 428 
Q 3081 428 3442 575 
Q 3803 722 4122 1019 
L 4122 359 
Q 3791 134 3420 21 
Q 3050 -91 2638 -91 
Q 1578 -91 968 557 
Q 359 1206 359 2328 
Q 359 3453 968 4101 
Q 1578 4750 2638 4750 
Q 3056 4750 3426 4639 
Q 3797 4528 4122 4306 
z
" transform="scale(0.015625)"/>
     <path id="DejaVuSans-32" d="M 2522 4238 
Q 1834 4238 1429 3725 
Q 1025 3213 1025 2328 
Q 1025 1447 1429 934 
Q 1834 422 2522 422 
Q 3209 422 3611 934 
Q 4013 1447 4013 2328 
Q 4013 3213 3611 3725 
Q 3209 4238 2522 4238 
z
M 2522 4750 
Q 3503 4750 4090 4092 
Q 4678 3434 4678 2328 
Q 4678 1225 4090 567 
Q 3503 -91 2522 -91 
Q 1538 -91 948 565 
Q 359 1222 359 2328 
Q 359 3434 948 4092 
Q 1538 4750 2522 4750 
z
" transform="scale(0.015625)"/>
     <path id="DejaVuSans-27" d="M 1259 4147 
L 1259 519 
L 2022 519 
Q 2988 519 3436 956 
Q 3884 1394 3884 2338 
Q 3884 3275 3436 3711 
Q 2988 4147 2022 4147 
L 1259 4147 
z
M 628 4666 
L 1925 4666 
Q 3281 4666 3915 4102 
Q 4550 3538 4550 2338 
Q 4550 1131 3912 565 
Q 3275 0 1925 0 
L 628 0 
L 628 4666 
z
" transform="scale(0.015625)"/>
     <path id="DejaVuSans-12" d="M 1625 4666 
L 2156 4666 
L 531 -594 
L 0 -594 
L 1625 4666 
z
" transform="scale(0.015625)"/>
     <path id="DejaVuSans-33" d="M 1259 4147 
L 1259 2394 
L 2053 2394 
Q 2494 2394 2734 2622 
Q 2975 2850 2975 3272 
Q 2975 3691 2734 3919 
Q 2494 4147 2053 4147 
L 1259 4147 
z
M 628 4666 
L 2053 4666 
Q 2838 4666 3239 4311 
Q 3641 3956 3641 3272 
Q 3641 2581 3239 2228 
Q 2838 1875 2053 1875 
L 1259 1875 
L 1259 0 
L 628 0 
L 628 4666 
z
" transform="scale(0.015625)"/>
     <path id="DejaVuSans-f" d="M 750 794 
L 1409 794 
L 1409 256 
L 897 -744 
L 494 -744 
L 750 256 
L 750 794 
z
" transform="scale(0.015625)"/>
     <path id="DejaVuSans-10" d="M 313 2009 
L 1997 2009 
L 1997 1497 
L 313 1497 
L 313 2009 
z
" transform="scale(0.015625)"/>
     <path id="DejaVuSans-49" d="M 2375 4863 
L 2375 4384 
L 1825 4384 
Q 1516 4384 1395 4259 
Q 1275 4134 1275 3809 
L 1275 3500 
L 2222 3500 
L 2222 3053 
L 1275 3053 
L 1275 0 
L 697 0 
L 697 3053 
L 147 3053 
L 147 3500 
L 697 3500 
L 697 3744 
Q 697 4328 969 4595 
Q 1241 4863 1831 4863 
L 2375 4863 
z
" transform="scale(0.015625)"/>
     <path id="DejaVuSans-4e" d="M 581 4863 
L 1159 4863 
L 1159 1991 
L 2875 3500 
L 3609 3500 
L 1753 1863 
L 3688 0 
L 2938 0 
L 1159 1709 
L 1159 0 
L 581 0 
L 581 4863 
z
" transform="scale(0.015625)"/>
     <path id="DejaVuSans-5d" d="M 353 3500 
L 3084 3500 
L 3084 2975 
L 922 459 
L 3084 459 
L 3084 0 
L 275 0 
L 275 525 
L 2438 3041 
L 353 3041 
L 353 3500 
z
" transform="scale(0.015625)"/>
    </defs>
    <use xlink:href="#DejaVuSans-36"/>
    <use xlink:href="#DejaVuSans-52" transform="translate(63.484375 0)"/>
    <use xlink:href="#DejaVuSans-58" transform="translate(124.671875 0)"/>
    <use xlink:href="#DejaVuSans-55" transform="translate(188.046875 0)"/>
    <use xlink:href="#DejaVuSans-46" transform="translate(226.953125 0)"/>
    <use xlink:href="#DejaVuSans-48" transform="translate(281.9375 0)"/>
    <use xlink:href="#DejaVuSans-1d" transform="translate(343.46875 0)"/>
    <use xlink:href="#DejaVuSans-3" transform="translate(377.15625 0)"/>
    <use xlink:href="#DejaVuSans-31" transform="translate(408.9375 0)"/>
    <use xlink:href="#DejaVuSans-3c" transform="translate(483.75 0)"/>
    <use xlink:href="#DejaVuSans-26" transform="translate(539.359375 0)"/>
    <use xlink:href="#DejaVuSans-3" transform="translate(609.1875 0)"/>
    <use xlink:href="#DejaVuSans-32" transform="translate(640.96875 0)"/>
    <use xlink:href="#DejaVuSans-53" transform="translate(719.6875 0)"/>
    <use xlink:href="#DejaVuSans-48" transform="translate(783.171875 0)"/>
    <use xlink:href="#DejaVuSans-51" transform="translate(844.703125 0)"/>
    <use xlink:href="#DejaVuSans-3" transform="translate(908.078125 0)"/>
    <use xlink:href="#DejaVuSans-27" transform="translate(939.859375 0)"/>
    <use xlink:href="#DejaVuSans-44" transform="translate(1016.859375 0)"/>
    <use xlink:href="#DejaVuSans-57" transform="translate(1078.140625 0)"/>
    <use xlink:href="#DejaVuSans-44" transform="translate(1117.34375 0)"/>
    <use xlink:href="#DejaVuSans-3" transform="translate(1178.625 0)"/>
    <use xlink:href="#DejaVuSans-12" transform="translate(1210.40625 0)"/>
    <use xlink:href="#DejaVuSans-3" transform="translate(1244.09375 0)"/>
    <use xlink:href="#DejaVuSans-31" transform="translate(1275.875 0)"/>
    <use xlink:href="#DejaVuSans-3c" transform="translate(1350.6875 0)"/>
    <use xlink:href="#DejaVuSans-33" transform="translate(1411.765625 0)"/>
    <use xlink:href="#DejaVuSans-27" transform="translate(1472.0625 0)"/>
    <use xlink:href="#DejaVuSans-f" transform="translate(1549.0625 0)"/>
    <use xlink:href="#DejaVuSans-3" transform="translate(1580.84375 0)"/>
    <use xlink:href="#DejaVuSans-47" transform="translate(1612.625 0)"/>
    <use xlink:href="#DejaVuSans-44" transform="translate(1676.109375 0)"/>
    <use xlink:href="#DejaVuSans-57" transform="translate(1737.390625 0)"/>
    <use xlink:href="#DejaVuSans-44" transform="translate(1776.59375 0)"/>
    <use xlink:href="#DejaVuSans-56" transform="translate(1837.875 0)"/>
    <use xlink:href="#DejaVuSans-48" transform="translate(1889.96875 0)"/>
    <use xlink:href="#DejaVuSans-57" transform="translate(1951.5 0)"/>
    <use xlink:href="#DejaVuSans-3" transform="translate(1990.703125 0)"/>
    <use xlink:href="#DejaVuSans-58" transform="translate(2022.484375 0)"/>
    <use xlink:href="#DejaVuSans-4c" transform="translate(2085.859375 0)"/>
    <use xlink:href="#DejaVuSans-53" transform="translate(2113.640625 0)"/>
    <use xlink:href="#DejaVuSans-1b" transform="translate(2177.125 0)"/>
    <use xlink:href="#DejaVuSans-10" transform="translate(2240.75 0)"/>
    <use xlink:href="#DejaVuSans-49" transform="translate(2276.828125 0)"/>
    <use xlink:href="#DejaVuSans-5c" transform="translate(2310.28125 0)"/>
    <use xlink:href="#DejaVuSans-4e" transform="translate(2369.46875 0)"/>
    <use xlink:href="#DejaVuSans-46" transform="translate(2427.375 0)"/>
    <use xlink:href="#DejaVuSans-1e" transform="translate(2482.359375 0)"/>
    <use xlink:href="#DejaVuSans-3" transform="translate(2516.046875 0)"/>
    <use xlink:href="#DejaVuSans-49" transform="translate(2547.828125 0)"/>
    <use xlink:href="#DejaVuSans-55" transform="translate(2583.03125 0)"/>
    <use xlink:href="#DejaVuSans-52" transform="translate(2621.9375 0)"/>
    <use xlink:href="#DejaVuSans-5d" transform="translate(2683.125 0)"/>
    <use xlink:href="#DejaVuSans-48" transform="translate(2735.609375 0)"/>
    <use xlink:href="#DejaVuSans-51" transform="translate(2797.140625 0)"/>
    <use xlink:href="#DejaVuSans-3" transform="translate(2860.515625 0)"/>
    <use xlink:href="#DejaVuSans-56" transform="translate(2892.296875 0)"/>
    <use xlink:href="#DejaVuSans-51" transform="translate(2944.390625 0)"/>
    <use xlink:href="#DejaVuSans-44" transform="translate(3007.765625 0)"/>
    <use xlink:href="#DejaVuSans-53" transform="translate(3069.046875 0)"/>
    <use xlink:href="#DejaVuSans-56" transform="translate(3132.53125 0)"/>
    <use xlink:href="#DejaVuSans-4b" transform="translate(3184.625 0)"/>
    <use xlink:href="#DejaVuSans-52" transform="translate(3248 0)"/>
    <use xlink:href="#DejaVuSans-57" transform="translate(3309.1875 0)"/>
    <use xlink:href="#DejaVuSans-3" transform="translate(3348.390625 0)"/>
    <use xlink:href="#DejaVuSans-55" transform="translate(3380.171875 0)"/>
    <use xlink:href="#DejaVuSans-48" transform="translate(3419.078125 0)"/>
    <use xlink:href="#DejaVuSans-57" transform="translate(3480.609375 0)"/>
    <use xlink:href="#DejaVuSans-55" transform="translate(3519.8125 0)"/>
    <use xlink:href="#DejaVuSans-4c" transform="translate(3560.921875 0)"/>
    <use xlink:href="#DejaVuSans-48" transform="translate(3588.703125 0)"/>
    <use xlink:href="#DejaVuSans-59" transform="translate(3650.234375 0)"/>
    <use xlink:href="#DejaVuSans-48" transform="translate(3709.421875 0)"/>
    <use xlink:href="#DejaVuSans-47" transform="translate(3770.953125 0)"/>
    <use xlink:href="#DejaVuSans-3" transform="translate(3834.4375 0)"/>
    <use xlink:href="#DejaVuSans-15" transform="translate(3866.21875 0)"/>
    <use xlink:href="#DejaVuSans-13" transform="translate(3929.84375 0)"/>
    <use xlink:href="#DejaVuSans-15" transform="translate(3993.46875 0)"/>
    <use xlink:href="#DejaVuSans-19" transform="translate(4057.09375 0)"/>
    <use xlink:href="#DejaVuSans-10" transform="translate(4120.71875 0)"/>
    <use xlink:href="#DejaVuSans-13" transform="translate(4156.796875 0)"/>
    <use xlink:href="#DejaVuSans-1b" transform="translate(4220.421875 0)"/>
    <use xlink:href="#DejaVuSans-10" transform="translate(4284.046875 0)"/>
    <use xlink:href="#DejaVuSans-15" transform="translate(4320.125 0)"/>
    <use xlink:href="#DejaVuSans-15" transform="translate(4383.75 0)"/>
    <use xlink:href="#DejaVuSans-11" transform="translate(4447.375 0)"/>
   </g>
  </g>
  <g id="text_23">
   <!-- Note: Calendar-day normalisation improves month comparability; all observed months are complete. Arrests are not crime rates. -->
   <g style="fill: #68737d" transform="translate(80.64 616.317539) scale(0.105 -0.105)">
    <use xlink:href="#DejaVuSans-31"/>
    <use xlink:href="#DejaVuSans-52" transform="translate(74.8125 0)"/>
    <use xlink:href="#DejaVuSans-57" transform="translate(136 0)"/>
    <use xlink:href="#DejaVuSans-48" transform="translate(175.203125 0)"/>
    <use xlink:href="#DejaVuSans-1d" transform="translate(236.734375 0)"/>
    <use xlink:href="#DejaVuSans-3" transform="translate(270.421875 0)"/>
    <use xlink:href="#DejaVuSans-26" transform="translate(302.203125 0)"/>
    <use xlink:href="#DejaVuSans-44" transform="translate(372.03125 0)"/>
    <use xlink:href="#DejaVuSans-4f" transform="translate(433.3125 0)"/>
    <use xlink:href="#DejaVuSans-48" transform="translate(461.09375 0)"/>
    <use xlink:href="#DejaVuSans-51" transform="translate(522.625 0)"/>
    <use xlink:href="#DejaVuSans-47" transform="translate(586 0)"/>
    <use xlink:href="#DejaVuSans-44" transform="translate(649.484375 0)"/>
    <use xlink:href="#DejaVuSans-55" transform="translate(710.765625 0)"/>
    <use xlink:href="#DejaVuSans-10" transform="translate(745.484375 0)"/>
    <use xlink:href="#DejaVuSans-47" transform="translate(781.5625 0)"/>
    <use xlink:href="#DejaVuSans-44" transform="translate(845.046875 0)"/>
    <use xlink:href="#DejaVuSans-5c" transform="translate(906.328125 0)"/>
    <use xlink:href="#DejaVuSans-3" transform="translate(965.515625 0)"/>
    <use xlink:href="#DejaVuSans-51" transform="translate(997.296875 0)"/>
    <use xlink:href="#DejaVuSans-52" transform="translate(1060.671875 0)"/>
    <use xlink:href="#DejaVuSans-55" transform="translate(1121.859375 0)"/>
    <use xlink:href="#DejaVuSans-50" transform="translate(1161.21875 0)"/>
    <use xlink:href="#DejaVuSans-44" transform="translate(1258.625 0)"/>
    <use xlink:href="#DejaVuSans-4f" transform="translate(1319.90625 0)"/>
    <use xlink:href="#DejaVuSans-4c" transform="translate(1347.6875 0)"/>
    <use xlink:href="#DejaVuSans-56" transform="translate(1375.46875 0)"/>
    <use xlink:href="#DejaVuSans-44" transform="translate(1427.5625 0)"/>
    <use xlink:href="#DejaVuSans-57" transform="translate(1488.84375 0)"/>
    <use xlink:href="#DejaVuSans-4c" transform="translate(1528.046875 0)"/>
    <use xlink:href="#DejaVuSans-52" transform="translate(1555.828125 0)"/>
    <use xlink:href="#DejaVuSans-51" transform="translate(1617.015625 0)"/>
    <use xlink:href="#DejaVuSans-3" transform="translate(1680.390625 0)"/>
    <use xlink:href="#DejaVuSans-4c" transform="translate(1712.171875 0)"/>
    <use xlink:href="#DejaVuSans-50" transform="translate(1739.953125 0)"/>
    <use xlink:href="#DejaVuSans-53" transform="translate(1837.359375 0)"/>
    <use xlink:href="#DejaVuSans-55" transform="translate(1900.84375 0)"/>
    <use xlink:href="#DejaVuSans-52" transform="translate(1939.75 0)"/>
    <use xlink:href="#DejaVuSans-59" transform="translate(2000.9375 0)"/>
    <use xlink:href="#DejaVuSans-48" transform="translate(2060.125 0)"/>
    <use xlink:href="#DejaVuSans-56" transform="translate(2121.65625 0)"/>
    <use xlink:href="#DejaVuSans-3" transform="translate(2173.75 0)"/>
    <use xlink:href="#DejaVuSans-50" transform="translate(2205.53125 0)"/>
    <use xlink:href="#DejaVuSans-52" transform="translate(2302.9375 0)"/>
    <use xlink:href="#DejaVuSans-51" transform="translate(2364.125 0)"/>
    <use xlink:href="#DejaVuSans-57" transform="translate(2427.5 0)"/>
    <use xlink:href="#DejaVuSans-4b" transform="translate(2466.703125 0)"/>
    <use xlink:href="#DejaVuSans-3" transform="translate(2530.078125 0)"/>
    <use xlink:href="#DejaVuSans-46" transform="translate(2561.859375 0)"/>
    <use xlink:href="#DejaVuSans-52" transform="translate(2616.84375 0)"/>
    <use xlink:href="#DejaVuSans-50" transform="translate(2678.03125 0)"/>
    <use xlink:href="#DejaVuSans-53" transform="translate(2775.4375 0)"/>
    <use xlink:href="#DejaVuSans-44" transform="translate(2838.921875 0)"/>
    <use xlink:href="#DejaVuSans-55" transform="translate(2900.203125 0)"/>
    <use xlink:href="#DejaVuSans-44" transform="translate(2941.3125 0)"/>
    <use xlink:href="#DejaVuSans-45" transform="translate(3002.59375 0)"/>
    <use xlink:href="#DejaVuSans-4c" transform="translate(3066.078125 0)"/>
    <use xlink:href="#DejaVuSans-4f" transform="translate(3093.859375 0)"/>
    <use xlink:href="#DejaVuSans-4c" transform="translate(3121.640625 0)"/>
    <use xlink:href="#DejaVuSans-57" transform="translate(3149.421875 0)"/>
    <use xlink:href="#DejaVuSans-5c" transform="translate(3188.625 0)"/>
    <use xlink:href="#DejaVuSans-1e" transform="translate(3247.8125 0)"/>
    <use xlink:href="#DejaVuSans-3" transform="translate(3281.5 0)"/>
    <use xlink:href="#DejaVuSans-44" transform="translate(3313.28125 0)"/>
    <use xlink:href="#DejaVuSans-4f" transform="translate(3374.5625 0)"/>
    <use xlink:href="#DejaVuSans-4f" transform="translate(3402.34375 0)"/>
    <use xlink:href="#DejaVuSans-3" transform="translate(3430.125 0)"/>
    <use xlink:href="#DejaVuSans-52" transform="translate(3461.90625 0)"/>
    <use xlink:href="#DejaVuSans-45" transform="translate(3523.09375 0)"/>
    <use xlink:href="#DejaVuSans-56" transform="translate(3586.578125 0)"/>
    <use xlink:href="#DejaVuSans-48" transform="translate(3638.671875 0)"/>
    <use xlink:href="#DejaVuSans-55" transform="translate(3700.203125 0)"/>
    <use xlink:href="#DejaVuSans-59" transform="translate(3741.3125 0)"/>
    <use xlink:href="#DejaVuSans-48" transform="translate(3800.5 0)"/>
    <use xlink:href="#DejaVuSans-47" transform="translate(3862.03125 0)"/>
    <use xlink:href="#DejaVuSans-3" transform="translate(3925.515625 0)"/>
    <use xlink:href="#DejaVuSans-50" transform="translate(3957.296875 0)"/>
    <use xlink:href="#DejaVuSans-52" transform="translate(4054.703125 0)"/>
    <use xlink:href="#DejaVuSans-51" transform="translate(4115.890625 0)"/>
    <use xlink:href="#DejaVuSans-57" transform="translate(4179.265625 0)"/>
    <use xlink:href="#DejaVuSans-4b" transform="translate(4218.46875 0)"/>
    <use xlink:href="#DejaVuSans-56" transform="translate(4281.84375 0)"/>
    <use xlink:href="#DejaVuSans-3" transform="translate(4333.9375 0)"/>
    <use xlink:href="#DejaVuSans-44" transform="translate(4365.71875 0)"/>
    <use xlink:href="#DejaVuSans-55" transform="translate(4427 0)"/>
    <use xlink:href="#DejaVuSans-48" transform="translate(4465.90625 0)"/>
    <use xlink:href="#DejaVuSans-3" transform="translate(4527.4375 0)"/>
    <use xlink:href="#DejaVuSans-46" transform="translate(4559.21875 0)"/>
    <use xlink:href="#DejaVuSans-52" transform="translate(4614.203125 0)"/>
    <use xlink:href="#DejaVuSans-50" transform="translate(4675.390625 0)"/>
    <use xlink:href="#DejaVuSans-53" transform="translate(4772.796875 0)"/>
    <use xlink:href="#DejaVuSans-4f" transform="translate(4836.28125 0)"/>
    <use xlink:href="#DejaVuSans-48" transform="translate(4864.0625 0)"/>
    <use xlink:href="#DejaVuSans-57" transform="translate(4925.59375 0)"/>
    <use xlink:href="#DejaVuSans-48" transform="translate(4964.796875 0)"/>
    <use xlink:href="#DejaVuSans-11" transform="translate(5026.328125 0)"/>
    <use xlink:href="#DejaVuSans-3" transform="translate(5058.109375 0)"/>
    <use xlink:href="#DejaVuSans-24" transform="translate(5089.890625 0)"/>
    <use xlink:href="#DejaVuSans-55" transform="translate(5158.296875 0)"/>
    <use xlink:href="#DejaVuSans-55" transform="translate(5197.65625 0)"/>
    <use xlink:href="#DejaVuSans-48" transform="translate(5236.5625 0)"/>
    <use xlink:href="#DejaVuSans-56" transform="translate(5298.09375 0)"/>
    <use xlink:href="#DejaVuSans-57" transform="translate(5350.1875 0)"/>
    <use xlink:href="#DejaVuSans-56" transform="translate(5389.390625 0)"/>
    <use xlink:href="#DejaVuSans-3" transform="translate(5441.484375 0)"/>
    <use xlink:href="#DejaVuSans-44" transform="translate(5473.265625 0)"/>
    <use xlink:href="#DejaVuSans-55" transform="translate(5534.546875 0)"/>
    <use xlink:href="#DejaVuSans-48" transform="translate(5573.453125 0)"/>
    <use xlink:href="#DejaVuSans-3" transform="translate(5634.984375 0)"/>
    <use xlink:href="#DejaVuSans-51" transform="translate(5666.765625 0)"/>
    <use xlink:href="#DejaVuSans-52" transform="translate(5730.140625 0)"/>
    <use xlink:href="#DejaVuSans-57" transform="translate(5791.328125 0)"/>
    <use xlink:href="#DejaVuSans-3" transform="translate(5830.53125 0)"/>
    <use xlink:href="#DejaVuSans-46" transform="translate(5862.3125 0)"/>
    <use xlink:href="#DejaVuSans-55" transform="translate(5917.296875 0)"/>
    <use xlink:href="#DejaVuSans-4c" transform="translate(5958.40625 0)"/>
    <use xlink:href="#DejaVuSans-50" transform="translate(5986.1875 0)"/>
    <use xlink:href="#DejaVuSans-48" transform="translate(6083.59375 0)"/>
    <use xlink:href="#DejaVuSans-3" transform="translate(6145.125 0)"/>
    <use xlink:href="#DejaVuSans-55" transform="translate(6176.90625 0)"/>
    <use xlink:href="#DejaVuSans-44" transform="translate(6218.015625 0)"/>
    <use xlink:href="#DejaVuSans-57" transform="translate(6279.296875 0)"/>
    <use xlink:href="#DejaVuSans-48" transform="translate(6318.5 0)"/>
    <use xlink:href="#DejaVuSans-56" transform="translate(6380.03125 0)"/>
    <use xlink:href="#DejaVuSans-11" transform="translate(6432.125 0)"/>
   </g>
  </g>
 </g>
 <defs>
  <clipPath id="p66bc9e44ae">
   <rect x="109.44" y="123.12" width="1002.24" height="408.24"/>
  </clipPath>
 </defs>
</svg>
